<?xml version="1.0" encoding="utf-8"?>
<!-- Generator: Adobe Illustrator 27.5.0, SVG Export Plug-In . SVG Version: 6.00 Build 0)  -->
<svg version="1.1" id="Layer_1" xmlns="http://www.w3.org/2000/svg" xmlns:xlink="http://www.w3.org/1999/xlink" x="0px" y="0px"
	 viewBox="0 0 450 450" style="disable-background" xml:space="preserve">
<path style="fill:#500800;" d="M345.718,187.853c-2.628,1.537-14.564,10.029-17.13,12.122c1.603-4.941,1.928-7.685,1.588-12.681
	c-0.149-2.215-0.938-3.316-1.051,0.465c-0.171,5.704-1.795,12.059-5.147,16.005c-4.313,4.169-10.054,10.548-14.198,15.454
	c1.656-7.354,0.046-16.337-0.039-16.89c-0.467-2.982-1.515-2.968-1.32,0.638c0.042,0.771,0.153,1.549,0.253,2.273
	c0.879,6.431-2.011,16.392-5.238,21.682c-1.35,1.665-2.686,3.326-4.015,4.979c-6.334,7.886-12.456,15.51-18.272,21.353
	c-2.385,2.399-4.817,4.588-7.289,6.601c4.284-9.812,5.792-25.125,0.353-34.419c-1.129-1.932-2.004-1.552-0.872,0.379
	c1.882,3.219,2.37,8.527,1.888,14.296c-2.18-4.342-5.487-10.057-9.706-12.564c-1.909-1.139-2.264-0.073-0.35,1.066
	c4.234,2.516,8.503,12.585,9.202,17.604c-1.518,7.551-5.002,15.038-8.236,18.419l-0.062,0.07
	c-11.138,7.355-18.045,10.217-24.656,12.754c-0.207-8.207-0.936-16.658-2.353-25.464c-1.303-8.095-3.281-16.8-5.578-25.872
	c0.098-0.352,0.131-0.736,0.089-1.12c-0.487-4.384,2.019-14.387,5.743-20.954c1.079-1.901,2.133-3.819,3.176-5.751
	c11.043-3.035,21.256-5.053,31.655-12.219c2.028-1.392,4.138-3.055,6.304-4.854c0.104-0.013,0.216-0.055,0.31-0.113
	c1.129-0.694,4.171-1.313,6.433-1.146c4.299,0.312,8.686,0.259,13.029,0.622c1.143,0.094,1.152-0.497,0.01-0.59l-4.46-0.452
	c1.121-1.415,2.118-4.143,4.462-6.091c0.887-0.733,0.628-1.097-0.289-0.407c-3.521,2.623-4.002,5.512-5.544,6.318l-7.284-0.347
	c-1.222-0.087-2.597-0.188-3.866-0.145c0.759-0.653,1.528-1.313,2.298-1.975c2.891-2.474,7.57-6.699,12.508-10.266
	c5.611-4.049,11.506-7.124,14.158-8.121c1.073-0.41,0.833-1.238-0.248-0.849c-1.473,0.522-8.309,3.691-9.806,4.507
	c1.276-2.348,1.699-3.704,2.008-6.259c0.126-1.138-0.171-1.773-0.58,0.129c-0.628,2.87-2.05,5.932-4.112,7.612
	c-2.571,1.701-6.079,4.383-8.638,6.468c1.53-3.558,1.56-8.249,1.576-8.541c0.04-1.555-0.49-1.645-0.732,0.2
	c-0.05,0.396-0.066,0.798-0.083,1.167c-0.167,3.339-2.566,8.104-4.696,10.479c-0.843,0.71-1.673,1.422-2.496,2.136
	c-3.954,3.388-7.77,6.667-11.256,9.072c-1.436,0.984-2.87,1.865-4.31,2.651c3.088-4.563,5.298-12.159,3.424-17.374
	c-0.388-1.083-0.87-0.97-0.48,0.107c0.65,1.811,0.402,4.537-0.388,7.409c-0.698-2.405-1.836-5.597-3.725-7.269
	c-0.857-0.756-1.137-0.247-0.275,0.508c1.902,1.672,3.113,7.168,2.99,9.768c-1.482,3.677-3.944,7.129-5.904,8.534l-0.036,0.033
	c-6.478,2.808-13.326,4.097-20.083,5.791c2.81-5.141,6.529-10.23,8.854-15.513c3.624-8.243,5.613-16.524,8.982-22.836l0.038-0.033
	c1.751-1.723,6.158-3.465,10.892-4.1c3.388,0.542,10.6,3.245,12.855,5.706c1.02,1.111,1.668,0.944,0.646-0.167
	c-2.245-2.452-6.466-4.484-9.624-5.841c3.712-0.1,7.262,0.33,9.641,1.487c1.428,0.695,1.552,0.213,0.123-0.482
	c-6.87-3.338-16.69-2.938-22.506-0.814c0.96-1.332,2.051-2.642,3.281-3.915c2.993-3.108,7.113-6.331,11.373-9.669
	c0.895-0.7,1.792-1.407,2.69-2.117c3.004-1.663,9.117-2.999,13.458-2.314c0.491,0.078,1.018,0.165,1.525,0.21
	c2.392,0.216,2.252-0.376,0.23-0.726c-0.375-0.066-6.494-1.236-11.076-0.522c2.622-2.188,5.982-5.237,8.096-7.546
	c2.106-1.773,6.036-2.503,9.752-2.429c2.464,0.047,1.628-0.431,0.154-0.581c-3.322-0.336-5.076-0.235-8.084,0.521
	c1.002-1.382,4.859-7.862,5.491-9.298c0.463-1.048-0.638-1.517-1.121-0.477c-1.202,2.568-4.97,8.066-10.023,13.006
	c-4.457,4.351-9.77,8.258-12.88,10.703c-0.834,0.652-1.665,1.3-2.482,1.946c0-1.349-0.185-2.835-0.348-4.165l-0.738-7.855
	c0.979-1.44,4.733-1.209,8.016-4.29c0.856-0.803,0.37-1.172-0.55-0.418c-2.439,2.002-5.956,2.363-7.762,3.191l-0.766-4.87
	c-0.173-1.242-0.938-1.386-0.77-0.14c0.645,4.724,0.758,9.386,1.338,14.058c0.303,2.456-0.372,5.539-1.237,6.562
	c-0.077,0.088-0.125,0.197-0.145,0.307c-2.252,1.849-4.538,3.493-6.076,5.474c-9.39,12.099-13.092,27.95-16.058,32.357
	c-2.668-5.387-8.83-8.147-10.241-19.342c-0.479-3.791-2.255-3.758-1.507-0.013c2.862,14.32,9.796,15.914,9.998,21.691
	l-11.438,21.398c-2.008,3.544-4.262,7.529-5.971,11.404c-0.864-3.215-1.75-6.464-2.639-9.73
	c-3.292-12.138-9.238-32.074-12.908-51.905c0.976-1.122,2.014-2.189,3.159-3.158l0.031-0.007c1.505-0.655,4.67-0.687,7.775,0.057
	c1.979,1.15,5.824,4.565,6.644,6.641c0.37,0.935,0.811,0.984,0.444,0.05c-0.811-2.066-2.956-4.347-4.604-5.953
	c2.341,0.831,4.453,1.951,5.655,3.239c0.725,0.775,0.919,0.507,0.193-0.269c-3.481-3.728-9.7-5.836-13.837-5.908
	c0.924-0.597,1.914-1.152,2.987-1.65c2.612-1.219,5.951-2.243,9.41-3.301c0.727-0.223,1.454-0.446,2.184-0.671
	c2.271-0.316,6.405,0.317,8.947,1.782c0.284,0.168,0.59,0.346,0.9,0.499c1.438,0.709,1.492,0.305,0.315-0.399
	c-0.218-0.128-3.75-2.327-6.778-2.979c2.16-0.736,4.982-1.833,6.855-2.766c1.738-0.599,4.363-0.113,6.664,0.827
	c1.525,0.619,1.115,0.122,0.233-0.325c-1.987-1.005-3.105-1.364-5.163-1.611c0.96-0.628,4.914-3.742,5.653-4.481
	c0.54-0.545-0.033-1.101-0.584-0.568c-1.365,1.312-5.036,3.835-9.37,5.705c-3.821,1.639-8.073,2.804-10.596,3.582
	c-0.678,0.207-1.352,0.413-2.014,0.618c0.32-0.837,0.564-1.812,0.779-2.679l1.427-5.077c0.958-0.658,3.239,0.382,6.023-0.75
	c0.73-0.293,0.515-0.643-0.24-0.392c-1.999,0.66-4.281,0.047-5.605,0.127l0.69-3.219c0.191-0.819-0.25-1.095-0.446-0.274
	c-0.728,3.1-1.778,6.032-2.54,9.086c-0.399,1.603-1.559,3.363-2.344,3.794c-0.067,0.04-0.124,0.094-0.161,0.16
	c-1.849,0.609-3.586,1.243-5.104,1.952c-3.253,1.518-5.827,3.442-8.072,5.607c-0.818-4.7-1.496-9.362-2.044-13.871
	c10.071-4.868,19.531-8.747,28.263-17.522c1.737-1.74,3.506-3.762,5.306-5.929c0.1-0.031,0.2-0.092,0.284-0.168
	c0.98-0.889,3.855-2.056,6.111-2.306c4.284-0.481,8.587-1.34,12.922-1.778c1.141-0.117,1.043-0.699-0.098-0.582l-4.468,0.375
	c0.845-1.598,1.322-4.463,3.27-6.808c0.738-0.882,0.417-1.192-0.359-0.347c-2.978,3.225-2.924,6.154-4.291,7.228l-7.225,0.996
	c-1.216,0.139-2.586,0.293-3.825,0.566c0.626-0.781,1.262-1.57,1.895-2.361c2.389-2.963,6.214-7.976,10.414-12.388
	c4.772-5.009,10.001-9.113,12.426-10.581c0.982-0.599,0.594-1.37-0.397-0.789c-1.353,0.783-7.49,5.153-8.813,6.23
	c0.821-2.543,0.99-3.953,0.824-6.521c-0.084-1.142-0.492-1.71-0.546,0.234c-0.091,2.937-0.926,6.207-2.646,8.237
	c-2.218,2.145-5.171,5.424-7.304,7.943c0.852-3.779,0.02-8.396-0.018-8.686c-0.246-1.535-0.784-1.528-0.682,0.331
	c0.023,0.399,0.079,0.797,0.129,1.163c0.45,3.313-1.035,8.436-2.694,11.161c-0.697,0.852-1.381,1.705-2.061,2.558
	c-3.267,4.056-6.417,7.979-9.4,10.982c-1.23,1.233-2.478,2.361-3.75,3.397c2.196-5.051,2.977-12.925,0.178-17.708
	c-0.58-0.992-1.031-0.792-0.451,0.195c0.97,1.661,1.226,4.387,0.978,7.354c-1.129-2.236-2.83-5.166-4.994-6.462
	c-0.981-0.586-1.164-0.035-0.179,0.55c2.175,1.294,4.374,6.476,4.731,9.055c-0.78,3.886-2.569,7.73-4.238,9.473l-0.028,0.036
	c-6.143,4.144-12.99,6.719-19.617,9.813c-4.036-14.182,2.858-27.921-1.447-43.596c1.114-1.327,2.303-2.591,3.637-3.718l0.032-0.007
	c1.504-0.655,4.67-0.687,7.774,0.057c1.979,1.15,5.826,4.564,6.643,6.641c0.37,0.935,0.814,0.984,0.444,0.05
	c-0.812-2.066-2.956-4.347-4.602-5.952c2.34,0.83,4.452,1.951,5.656,3.239c0.725,0.775,0.918,0.507,0.192-0.268
	c-3.482-3.728-9.7-5.836-13.837-5.908c0.924-0.597,1.914-1.153,2.987-1.65c2.613-1.219,5.953-2.243,9.41-3.301
	c0.727-0.223,1.455-0.447,2.185-0.671c2.271-0.316,6.406,0.317,8.948,1.782c0.284,0.168,0.59,0.346,0.899,0.499
	c1.438,0.709,1.491,0.305,0.316-0.4c-0.219-0.128-3.75-2.327-6.778-2.979c2.16-0.736,4.982-1.833,6.855-2.766
	c1.739-0.598,4.363-0.112,6.663,0.827c1.526,0.619,1.116,0.122,0.236-0.325c-1.989-1.004-3.108-1.364-5.164-1.611
	c0.959-0.628,4.914-3.741,5.652-4.48c0.541-0.545-0.033-1.101-0.584-0.569c-1.366,1.313-5.034,3.836-9.37,5.705
	c-3.821,1.64-8.074,2.805-10.596,3.582c-0.677,0.208-1.352,0.413-2.015,0.618c0.321-0.837,0.566-1.812,0.781-2.679l1.427-5.077
	c0.957-0.658,3.238,0.382,6.022-0.749c0.73-0.294,0.514-0.644-0.24-0.393c-1.997,0.661-4.282,0.047-5.605,0.127l0.689-3.218
	c0.192-0.819-0.25-1.095-0.445-0.274c-0.729,3.1-1.778,6.033-2.54,9.086c-0.401,1.603-1.559,3.363-2.344,3.794
	c-0.066,0.038-0.124,0.094-0.161,0.16c-1.849,0.609-3.586,1.243-5.103,1.953c-3.633,1.694-6.419,3.896-8.846,6.373
	c-0.556-1.636-1.217-3.34-1.934-5.085c0.037-0.102,0.045-0.221,0.024-0.327c-0.27-1.314,0.59-4.353,2.03-6.369
	c2.723-3.833,5.032-7.888,7.846-11.738c0.739-1.013-0.006-1.253-0.744-0.24l-2.988,3.926c-1.192-1.59-4.112-3.577-5.315-6.498
	c-0.452-1.104-1.055-1.009-0.673,0.105c1.422,4.271,4.827,5.846,5.016,7.581l-4.388,6.563c-0.771,1.092-1.644,2.316-2.276,3.498
	c-0.417-0.951-0.838-1.919-1.26-2.885c-1.578-3.631-4.407-9.593-6.258-15.535c-2.097-6.753-2.809-13.378-2.64-16.211
	c0.063-1.149-1.121-1.252-1.212-0.106c-0.132,1.56,0.185,9.09,0.409,10.788c-2.288-2.093-3.778-3.018-6.859-4.301
	c-1.373-0.565-2.341-0.542-0.146,0.584c3.301,1.703,6.419,4.214,7.436,6.768c0.766,3.036,2.268,7.313,3.529,10.486
	c-3.689-2.807-9.627-4.674-9.994-4.806c-1.946-0.646-2.351-0.192-0.139,0.754c0.478,0.199,0.981,0.374,1.438,0.536
	c4.151,1.464,8.893,5.543,10.755,8.431c0.448,1.054,0.905,2.097,1.363,3.135c2.163,4.968,4.251,9.763,5.416,13.914
	c0.473,1.708,0.814,3.372,1.029,5.001c-4.118-4.625-12.564-9.644-20.2-9.966c-1.585-0.069-1.703,0.417-0.122,0.485
	c2.648,0.113,5.971,1.409,9.19,3.263c-3.428-0.3-8.097-0.506-11.242,0.571c-1.426,0.495-0.93,0.951,0.498,0.455
	c3.155-1.094,10.787-0.049,14.018,1.085c2.711,1.967,5.021,4.337,6.407,6.391c3.637,5.959-1.968,25.853-0.521,36.436l1.081,9.879
	c0.31,2.202,0.676,4.615,1.083,7.153c-4.455-1.731-9.226-3.799-16.694-8.732l-0.039-0.054c-2.292-2.379-4.739-7.662-5.815-12.981
	c0.499-3.55,3.514-10.644,6.496-12.414c1.345-0.801,1.093-1.559-0.247-0.753c-2.973,1.767-5.316,5.798-6.857,8.853
	c-0.325-4.065,0.018-7.81,1.347-10.078c0.794-1.358,0.179-1.634-0.625-0.269c-3.829,6.555-2.761,17.354,0.251,24.281
	c-1.745-1.43-3.46-2.963-5.135-4.65c-4.106-4.129-8.427-9.508-12.894-15.071c-0.937-1.159-1.872-2.332-2.823-3.512
	c-2.282-3.726-4.32-10.748-3.695-15.286c0.065-0.509,0.145-1.063,0.176-1.608c0.132-2.534-0.607-2.556-0.939-0.449
	c-0.057,0.397-1.188,6.728-0.017,11.913c-2.935-3.46-6.967-7.95-10.016-10.893c-2.374-2.787-3.513-7.268-3.637-11.288
	c-0.082-2.668-0.636-1.9-0.739-0.339c-0.24,3.534-0.008,5.464,1.119,8.952c-1.808-1.483-10.226-7.463-12.071-8.556
	c-1.365-0.792-1.886,0.281-0.556,1.095c3.324,2.011,10.508,7.633,17.042,14.505c5.764,6.052,11.01,12.929,14.27,16.99
	c0.886,1.087,1.749,2.164,2.615,3.226c-1.708-0.358-3.583-0.579-5.255-0.761l-9.894-1.369c-1.89-1.472-1.801-5.493-5.892-9.924
	c-1.068-1.153-1.51-0.729-0.495,0.49c2.665,3.202,3.331,7.138,4.479,9.337l-6.122-0.525c-1.567-0.156-1.693,0.644-0.13,0.799
	c5.938,0.612,11.837,1.782,17.71,2.438c3.095,0.353,7.034,1.938,8.376,3.169c0.118,0.098,0.262,0.188,0.396,0.238
	c2.471,2.961,4.893,5.738,7.283,8.123c12.012,12.072,16.567,14.375,30,20.929c1.337,7.695,2.957,15.89,4.591,22.534
	c-10.447-11.886-29.015-25.181-44.788-26.81c-2.49-0.259-5.254-0.31-8.173-0.265c-0.079-0.076-0.187-0.124-0.296-0.142
	c-1.319-0.234-3.83-2.147-5.178-4.226c-2.569-3.938-5.494-7.574-8.042-11.605c-0.674-1.057-1.171-0.454-0.5,0.603l2.558,4.218
	c-1.918,0.528-4.832,2.518-7.995,2.566c-1.194,0.013-1.326,0.612-0.146,0.662c4.491,0.242,7.206-2.347,8.89-1.885l4.496,6.486
	c0.734,1.119,1.552,2.379,2.421,3.402c-1.038,0.04-2.098,0.077-3.149,0.117c-3.957,0.133-10.541,0.58-16.745,0.125
	c-7.054-0.524-13.479-2.293-16.05-3.487c-1.045-0.48-1.575,0.582-0.542,1.087c1.399,0.694,8.524,3.161,10.186,3.576
	c-2.786,1.362-4.193,2.408-6.519,4.803c-1.03,1.069-1.362,1.98,0.489,0.352c2.798-2.448,6.275-4.427,9.025-4.439
	c3.106,0.402,7.634,0.574,11.05,0.565c-3.962,2.399-7.878,7.24-8.134,7.531c-1.316,1.576-1.043,2.117,0.649,0.406
	c0.362-0.37,0.709-0.773,1.026-1.143c2.882-3.323,8.42-6.238,11.786-6.912c1.146-0.031,2.284-0.074,3.418-0.123
	c5.413-0.187,10.641-0.372,14.931,0.065c1.761,0.187,3.435,0.477,5.027,0.876c-5.81,2.136-13.575,8.154-16.675,15.14
	c-0.646,1.45-0.237,1.737,0.406,0.291c1.074-2.424,3.501-5.041,6.407-7.355c-1.54,3.082-3.442,7.349-3.593,10.671
	c-0.062,1.508,0.543,1.212,0.607-0.297c0.138-3.335,3.909-10.055,6.146-12.646c4.024-2.565,8.512-4.073,10.97-3.882l0.049-0.003
	c16.261,6.257,33.932,22.992,40.266,38.212c0.95,3.538,1.903,7.064,2.857,10.565c2.455,9.016,4.866,17.87,6.919,26.302
	c-2.921-1.163-6.144-2.651-10.969-5.838l-0.027-0.037c-1.611-1.672-3.332-5.387-4.088-9.127c0.351-2.496,2.471-7.482,4.567-8.727
	c0.945-0.563,0.768-1.096-0.174-0.53c-2.09,1.243-3.738,4.076-4.821,6.225c-0.229-2.859,0.013-5.491,0.947-7.085
	c0.558-0.955,0.126-1.149-0.439-0.189c-2.692,4.608-1.941,12.2,0.176,17.069c-1.226-1.005-2.432-2.082-3.609-3.268
	c-2.887-2.904-5.924-6.685-9.065-10.596c-0.658-0.814-1.316-1.639-1.985-2.469c-1.604-2.619-3.037-7.556-2.598-10.746
	c0.046-0.357,0.103-0.747,0.124-1.131c0.092-1.78-0.427-1.796-0.66-0.315c-0.041,0.279-0.835,4.73-0.011,8.375
	c-2.064-2.433-4.899-5.59-7.042-7.658c-1.669-1.959-2.47-5.109-2.558-7.936c-0.057-1.875-0.447-1.335-0.52-0.238
	c-0.169,2.485-0.005,3.841,0.786,6.294c-1.271-1.043-7.188-5.247-8.486-6.015c-0.959-0.556-1.326,0.197-0.391,0.77
	c2.337,1.414,7.388,5.367,11.981,10.197c4.053,4.254,7.74,9.09,10.032,11.944c0.624,0.764,1.231,1.521,1.839,2.267
	c-1.201-0.251-2.519-0.407-3.695-0.535l-6.956-0.962c-1.329-1.035-1.266-3.862-4.143-6.977c-0.75-0.811-1.061-0.513-0.348,0.344
	c1.874,2.251,2.342,5.018,3.149,6.564l-4.305-0.369c-1.102-0.109-1.19,0.453-0.091,0.563c4.175,0.429,8.322,1.253,12.45,1.714
	c2.176,0.248,4.945,1.361,5.888,2.228c0.083,0.068,0.185,0.133,0.279,0.167c1.737,2.081,3.44,4.035,5.12,5.71
	c8.306,8.348,11.542,10.052,20.633,14.491c1.318,5.68,2.444,11.141,3.273,16.296c0.92,5.718,1.163,16.74,1.465,22.187
	l-20.023-29.096c-0.17-0.638-0.477-1.112-0.925-1.184c-6.153-0.456-11.536-0.482-22.58-3.73l-0.053-0.039
	c-2.89-1.604-6.781-5.936-9.369-10.706c-0.564-3.54,0.237-11.205,2.57-13.773c1.049-1.161,0.586-1.813-0.46-0.647
	c-2.323,2.563-3.379,7.103-3.956,10.475c-1.502-3.792-2.274-7.471-1.668-10.027c0.358-1.533-0.31-1.617-0.677-0.076
	c-1.738,7.389,2.451,17.402,7.362,23.137c-2.087-0.854-4.176-1.816-6.271-2.938c-5.137-2.743-10.847-6.617-16.747-10.625
	c-1.238-0.835-2.475-1.678-3.73-2.53c-3.273-2.891-7.285-9.007-8.017-13.53c-0.088-0.504-0.174-1.058-0.305-1.588
	c-0.616-2.46-1.33-2.265-1.029-0.154c0.061,0.397,0.837,6.781,3.48,11.395c-3.822-2.446-8.994-5.556-12.771-7.474
	c-3.089-1.968-5.493-5.919-6.79-9.727c-0.86-2.525-1.167-1.63-0.806-0.107c0.805,3.449,1.593,5.226,3.698,8.229
	c-2.165-0.887-11.967-4.133-14.052-4.637c-1.537-0.357-1.722,0.821-0.211,1.208c3.768,0.95,12.288,4.216,20.549,8.869
	c7.284,4.094,14.316,9.133,18.625,12.056c1.167,0.778,2.308,1.556,3.447,2.317c-1.738,0.157-3.594,0.495-5.248,0.813l-9.861,1.596
	c-2.236-0.852-3.332-4.723-8.542-7.76c-1.359-0.788-1.657-0.253-0.33,0.614c3.486,2.28,5.278,5.847,7.021,7.613l-6.007,1.294
	c-1.544,0.311-1.432,1.11,0.109,0.803c5.857-1.159,11.838-1.769,17.646-2.865c3.063-0.57,7.294-0.21,8.937,0.572
	c0.142,0.059,0.306,0.104,0.448,0.11c3.231,2.105,6.361,4.051,9.345,5.63c6.648,3.547,11.34,5.694,15.783,7.188
	c-4.401,0.668-8.481,1.645-11.367,2.888c-3.5,1.5-2.38,3.059,1.122,1.559c7.742-3.332,21.793-2.251,26.31,0.261
	c1.69,1.836,3.57,3.937,5.514,6.188c-4.134,0.686-8.298,1.905-12.585,4.065c-2.24,1.128-4.596,2.574-7.029,4.179
	c-0.112-0.014-0.228,0.001-0.335,0.046c-1.233,0.523-4.379,0.256-6.635-0.763c-4.288-1.939-8.709-3.425-13.032-5.441
	c-1.137-0.532-1.229,0.243-0.092,0.776l4.424,2.175c-1.326,1.481-2.715,4.731-5.348,6.468c-0.993,0.655-0.785,1.23,0.238,0.648
	c3.912-2.222,4.804-5.873,6.469-6.386l7.287,3.034c1.218,0.549,2.586,1.164,3.872,1.567c-0.858,0.588-1.723,1.189-2.594,1.791
	c-3.254,2.245-8.562,6.166-14.039,9.131c-6.214,3.365-12.582,5.336-15.392,5.722c-1.136,0.156-1.015,1.342,0.126,1.212
	c1.559-0.177,8.887-1.941,10.508-2.488c-1.616,2.648-2.232,4.291-2.894,7.565c-0.293,1.45-0.085,2.389,0.599,0.025
	c1.032-3.57,2.892-7.109,5.21-8.597c2.833-1.335,6.737-3.64,9.606-5.493c-2.042,4.163-2.735,10.354-2.784,10.731
	c-0.264,2.034,0.258,2.344,0.761-0.004c0.107-0.503,0.18-1.03,0.252-1.519c0.631-4.349,3.718-9.792,6.198-12.17
	c0.944-0.646,1.884-1.294,2.817-1.939c4.45-3.081,8.752-6.059,12.606-8c1.583-0.798,3.151-1.448,4.711-1.975
	c-3.753,4.927-7.043,14.186-5.89,21.738c0.24,1.568,0.736,1.594,0.497,0.024c-0.4-2.615,0.24-6.133,1.436-9.648
	c0.36,3.419,1.051,8.052,2.727,10.924c0.759,1.304,1.11,0.734,0.351-0.57c-1.681-2.883-2.128-10.57-1.641-13.969
	c2.007-4.332,4.978-8.024,7.142-9.189l0.044-0.025c1.636-0.334,3.285-0.547,4.936-0.677c7.329,8.74,13.65,21.554,14.144,26.997
	c-0.918,26.152-8.468,51.005-13.128,76.427c-12.917,8.723-62.813-6.679-81.981,5.548c-3.657,2.333-6.204,5.665-7.153,10.368
	c-8.364,2.417-10.171,13.08-6.008,18.534c-2.947,3.171-3.881,5.542-3.805,7.626c-4.751,1.709-6.155,7.83-3.967,11.013
	c-1.816,1.808-2.513,3.184-2.622,4.391v0.699c0.213,2.388,2.514,4.258,2.179,7.926l0.176,0.043c0.562-6.084-4.335-7.038,0.87-12.292
	c2.323,2.582,6.886,4.316,2.728,9.263l0.049,0.322c1.273-1.522,1.912-2.762,2.117-3.805c4.032,0.899-0.454,7.826,1.04,11.326
	l0.127-0.025c-1.352-3.17,4.467-11.471-1.096-12.327c-0.22-3.016-4.21-4.536-5.132-7.188c-1.094-3.196,0.125-6.921,3.707-8.055
	c0.872,3.744,4.596,6.839,4.494,12.688l0.306,0.074c0.179-10.1-8.068-11.683-0.072-20.414c4.169,4.301,11.955,7.174,5.672,15.391
	l0.112,0.525c1.922-2.515,2.832-4.569,3.045-6.318c6.794,1.494,0.214,12.99,3.122,18.806l0.112-0.026l0.094-0.022
	c-0.034-0.067-0.063-0.139-0.094-0.208c-0.682-1.595-0.441-3.892,0-6.372c0.808-4.54,2.285-9.698,0-12.302
	c-0.694-0.793-1.734-1.348-3.249-1.579c-0.735-4.992-7.555-7.525-9.398-11.932c-2.214-5.296-0.641-11.483,5.169-13.363
	c-0.075,0.853-0.121,1.734-0.107,2.672c0.087,5.728,4.157,9.34,7.584,13.149c2.629,2.921,4.88,5.959,4.667,10.154l0.618,0.258
	c0.26-5.118-2.32-8.624-5.069-11.932c0.717,0.318,1.667,0.636,3.035,1.039c13.399,3.959,11.101,14.064,10.022,23.809l0.412,0.266
	c0.357-3.23,0.966-6.285,1.222-9.171c3.501,1.008,4.706,4.584,3.657,7.638c-0.859,2.503-4.627,3.943-4.833,6.779
	c-5.245,0.807,0.238,8.638-1.031,11.623l0.121,0.028c1.405-3.305-2.821-9.836,0.975-10.684c0.195,0.992,0.799,2.16,1.999,3.588
	l0.041-0.298c-3.918-4.669,0.383-6.299,2.569-8.744c4.914,4.961,0.295,5.86,0.826,11.599l0.17-0.043
	c-0.502-5.457,5.178-6.693-0.427-12.273c2.101-3.051,0.699-8.976-3.979-10.464c0.23-4.712-0.757-8.962-5.727-12.786
	c-1.049-0.807-2.349-1.384-3.758-1.892c-0.284-1.995,2.43-6.157-0.523-6.611c-0.125-1.706-2.383-2.567-2.904-4.066
	c-0.533-1.556-0.095-3.334,1.327-4.21c5.73,3.193,15.061,4.237,11.841,16.054l0.526,0.023c2.922-10.724-1.437-12.811-8.162-15.903
	l0.001-0.002c-3.368-1.548-8.493-3.535-6.049-8.422l-0.002-0.001c0.62-1.239,1.674-2.453,3.021-3.526
	c2.111-0.639,4.48-1.024,7.048-1.217c-0.369,0.366-0.69,0.747-0.947,1.136h-0.002c-0.388,0.589-0.636,1.198-0.706,1.8
	c-0.614,5.233,10.56,2.788,6.712,11.679l0.281,0.012c2.496-5.769,0.331-6.893-3.02-8.558c-1.678-0.832-4.264-1.901-2.529-4.532
	c0.371-0.56,0.908-1.114,1.556-1.619c4.574-0.222,9.719,0.107,15.136,0.68c-5.522,3.873-6.325,12.334-2.768,16.993
	c-6.458,6.946-3.265,10.066-0.901,14.697c-1.163,0.805-2.132,1.741-2.775,2.716h-0.002c-0.465,0.703-0.763,1.435-0.847,2.158
	c-0.738,6.276,12.67,3.345,8.053,14.011l0.338,0.014c2.995-6.922,0.397-8.27-3.624-10.266l0.001-0.001
	c-2.015-0.999-5.118-2.282-3.034-5.438h-0.002c0.531-0.804,1.344-1.592,2.33-2.287c0.775,1.695,1.368,3.619,1.326,5.999l0.306,0.076
	c0.178-10.101-8.068-11.683-0.072-20.415c4.168,4.303,11.954,7.174,5.672,15.391l0.112,0.525c1.921-2.514,2.831-4.57,3.044-6.316
	c6.794,1.492,0.215,12.988,3.123,18.806l0.207-0.05c-2.626-5.255,5.995-19.039-3.344-20.462c-0.735-4.992-7.555-7.525-9.398-11.932
	c-2.325-5.56-0.476-12.102,6.07-13.611l0.004-0.174c4.732,0.571,9.613,1.267,14.452,1.894c1.884,1.56,2.414,4.222,1.605,6.573
	c-0.86,2.503-4.627,3.943-4.833,6.778c-5.245,0.808,0.238,8.639-1.031,11.624l0.12,0.028c1.404-3.306-2.821-9.837,0.975-10.684
	c0.195,0.992,0.799,2.16,1.998,3.588l0.042-0.299c-3.918-4.668,0.383-6.299,2.57-8.743c4.912,4.961,0.294,5.86,0.825,11.597
	l0.17-0.041c-0.502-5.457,5.179-6.693-0.426-12.274c1.438-2.088,1.237-5.521-0.535-7.958c4.528,0.572,9.001,1.068,13.266,1.326
	c-3.963,4.015-4.292,10.962-1.24,14.961c-1.392,1.497-2.309,2.807-2.871,3.986c-8.254,2.091-11.527,11.711-7.151,18.62
	c-8.67,9.327,1.353,11.393,1.192,20.514l0.29,0.07c0.17-9.589-7.66-11.091-0.068-19.382c3.958,4.084,11.35,6.812,5.386,14.611
	l0.107,0.501c1.824-2.389,2.688-4.34,2.89-5.998c6.452,1.416,0.205,12.331,2.965,17.855l0.196-0.048
	c-2.493-4.989,5.693-18.076-3.173-19.427c-0.699-4.738-7.174-7.145-8.923-11.327c-2.182-5.217-0.492-11.345,5.546-12.871
	c0.059,4.225,4.545,7.164,4.435,13.407l0.29,0.07c0.169-9.588-7.66-11.09-0.069-19.381c3.958,4.084,11.351,6.811,5.386,14.611
	l0.107,0.5c1.825-2.388,2.689-4.339,2.89-5.997c6.451,1.415,0.205,12.331,2.965,17.854l0.196-0.048
	c-1.238-2.478,0.298-7.233,1.069-11.555c4.089,1.411,5.472,5.742,4.196,9.457c-1.079,3.141-5.804,4.946-6.063,8.503
	c-6.579,1.014,0.298,10.837-1.293,14.582l0.15,0.035c1.762-4.144-3.539-12.338,1.224-13.402c0.245,1.246,1.002,2.711,2.506,4.503
	l0.051-0.375c-4.914-5.855,0.48-7.901,3.224-10.968c6.162,6.224,0.37,7.351,1.035,14.549l0.214-0.054
	c-0.63-6.845,6.496-8.396-0.535-15.396c2.556-3.713,0.98-10.813-4.474-12.942c0.485-3.742,0.024-6.885-3.919-7.483
	c-0.698-4.74-6.614-6.213-8.363-10.394c-1.876-4.49-0.886-9.658,3.277-11.982c5.303,0.138,10.186-0.194,14.322-1.333
	c3.934,1.354,5.382,5.125,4.13,8.488c-1.078,2.896-5.804,4.563-6.063,7.846c-6.58,0.935,0.299,9.999-1.293,13.454l0.15,0.032
	c1.762-3.824-3.538-11.384,1.224-12.365c0.246,1.149,1.002,2.5,2.506,4.153l0.052-0.346c-4.915-5.402,0.481-7.29,3.223-10.119
	c6.163,5.741,0.37,6.781,1.035,13.424l0.214-0.051c-0.631-6.315,6.496-7.746-0.535-14.205c2.229-2.987,1.318-8.351-2.565-10.978
	c6.949-2.564,8.483-2.563,15.434,0c-3.884,2.627-4.792,7.989-2.564,10.98c-2.145,1.971-2.974,3.471-3.107,4.785
	c-3.663,1.014-4.767,5.261-3.142,7.443c-4.306,3.957,0.058,4.831-0.332,8.703l0.133,0.025c0.408-4.065-3.141-4.7,0.635-8.219
	c1.676,1.73,4.984,2.886,1.973,6.191l0.031,0.213c0.923-1.008,1.385-1.837,1.536-2.539c2.916,0.601-0.328,5.231,0.749,7.572
	l0.093-0.021c-0.975-2.112,3.238-7.666-0.792-8.237c-0.158-2.013-3.05-3.034-3.714-4.81c-0.801-2.148,0.204-4.571,2.861-5.299
	c0.392,2.485,2.922,4.523,2.532,8.4l0.218,0.044c0.668-6.639-5.129-7.675,1.036-13.42c2.738,2.826,8.14,4.712,3.222,10.108
	l0.052,0.348c1.506-1.647,2.261-2.997,2.508-4.146c4.761,0.979-0.535,8.542,1.222,12.363l0.151-0.034
	c-1.591-3.448,5.289-12.516-1.29-13.448c-0.261-3.287-4.982-4.954-6.066-7.857c-1.252-3.357,0.198-7.126,4.127-8.484
	c4.324,1.191,9.465,1.5,15.046,1.313c4.499,2.21,5.614,7.56,3.677,12.191c-1.748,4.184-8.224,6.589-8.922,11.327
	c-3.656,0.559-4.414,3.108-4.217,6.267c-5.665,2-7.335,9.269-4.735,13.04c-7.031,7.001,0.096,8.552-0.536,15.395l0.214,0.055
	c0.664-7.198-5.127-8.325,1.036-14.549c2.742,3.066,8.138,5.112,3.223,10.968l0.052,0.375c1.504-1.791,2.26-3.257,2.506-4.501
	c4.764,1.063-0.538,9.256,1.224,13.4l0.15-0.035c-1.59-3.743,5.288-13.568-1.292-14.582c-0.259-3.557-4.984-5.362-6.062-8.503
	c-1.296-3.771,0.148-8.176,4.382-9.52c0.572,4.197,2.184,9.012,0.882,11.617l0.195,0.048c2.761-5.523-3.485-16.439,2.965-17.854
	c0.201,1.658,1.066,3.609,2.892,5.997l0.105-0.5c-5.966-7.801,1.429-10.527,5.386-14.611c7.593,8.291-0.237,9.793-0.069,19.381
	l0.29-0.07c-0.108-6.243,4.376-9.183,4.435-13.407c6.038,1.526,7.729,7.654,5.546,12.871c-1.748,4.183-8.224,6.589-8.921,11.327
	c-8.867,1.351-0.683,14.438-3.175,19.427l0.196,0.048c2.76-5.523-3.486-16.439,2.964-17.855c0.202,1.658,1.066,3.609,2.892,5.998
	l0.105-0.501c-5.966-7.8,1.428-10.527,5.386-14.611c7.59,8.291-0.239,9.793-0.07,19.382l0.29-0.07
	c-0.157-9.121,9.49-11.187,0.82-20.514c4.053-5.306,2.15-15.81-6.307-17.752l0.008,0.369c-0.436-1.493-1.455-3.185-3.351-5.224
	c3.054-3.999,2.724-10.947-1.238-14.961c4.266-0.259,8.738-0.756,13.266-1.328c-1.771,2.436-1.974,5.872-0.535,7.96
	c-5.604,5.581,0.075,6.817-0.427,12.274l0.17,0.041c0.529-5.736-4.088-6.636,0.825-11.597c2.186,2.444,6.486,4.075,2.569,8.743
	l0.042,0.299c1.2-1.428,1.801-2.596,1.997-3.588c3.796,0.847-0.43,7.378,0.977,10.684l0.12-0.028
	c-1.27-2.985,4.214-10.816-1.032-11.624c-0.206-2.835-3.972-4.275-4.832-6.778c-0.809-2.354-0.278-5.017,1.608-6.576
	c4.653-0.604,9.348-1.268,13.909-1.827c5.912,1.927,8.822,8.438,6.614,13.722c-1.842,4.406-8.664,6.939-9.397,11.932
	c-9.34,1.423-0.719,15.207-3.345,20.462l0.207,0.05c2.907-5.817-3.673-17.314,3.122-18.806c0.213,1.746,1.123,3.803,3.045,6.316
	l0.112-0.525c-6.281-8.217,1.503-11.088,5.672-15.391c7.995,8.732-0.25,10.314-0.071,20.415l0.305-0.076
	c-0.042-2.358,0.574-4.27,1.391-5.954c0.958,0.684,1.746,1.456,2.266,2.242h-0.002c2.084,3.155-1.02,4.438-3.034,5.438l0.003,0.001
	c-4.022,1.996-6.621,3.344-3.624,10.266l0.335-0.014c-4.615-10.666,8.792-7.734,8.057-14.011c-0.087-0.724-0.385-1.455-0.849-2.158
	h-0.002c-0.628-0.951-1.565-1.865-2.692-2.657c2.531-4.662,6.061-7.78-0.426-14.756c3.518-4.979,2.93-13.467-3-17.028
	c5.227-0.541,10.192-0.854,14.628-0.654c1.57,1.202,2.254,2.382,2.032,3.585c-0.674,3.659-9.582,2.447-5.844,11.133l0.282-0.011
	c-3.848-8.89,7.325-6.445,6.711-11.679c-0.127-1.092-0.81-2.103-1.653-2.936c2.567,0.191,4.934,0.578,7.044,1.217
	c7.556,8.024,0.332,10.345-5.141,12.884c-5.475,2.541-8.648,5.396-6.047,14.971l0.524-0.023
	c-3.219-11.814,6.109-12.86,11.839-16.053c1.422,0.877,1.859,2.655,1.328,4.205c-0.516,1.501-2.775,2.365-2.9,4.067
	c-2.953,0.455-0.239,4.621-0.523,6.614c-1.41,0.508-2.71,1.084-3.758,1.892c-4.97,3.824-5.958,8.074-5.729,12.786
	c-4.678,1.488-6.079,7.413-3.977,10.464c-5.605,5.58,0.076,6.816-0.429,12.273l0.171,0.043c0.529-5.738-4.086-6.638,0.825-11.599
	c2.186,2.445,6.488,4.075,2.571,8.744l0.039,0.298c1.2-1.428,1.805-2.596,2-3.588c3.796,0.848-0.43,7.379,0.974,10.684l0.121-0.028
	c-1.269-2.985,4.213-10.816-1.033-11.623c-0.203-2.836-3.971-4.276-4.831-6.779c-1.048-3.054,0.155-6.63,3.658-7.638
	c0.253,2.886,0.863,5.941,1.22,9.171l0.412-0.266c-1.079-9.745-3.376-19.85,10.023-23.809c1.366-0.403,2.317-0.721,3.034-1.039
	c-2.75,3.308-5.33,6.813-5.07,11.932l0.618-0.258c-0.212-4.196,2.04-7.234,4.668-10.155c3.428-3.81,7.498-7.42,7.584-13.148
	c0.015-0.938-0.032-1.819-0.106-2.672c5.809,1.88,7.383,8.067,5.169,13.363c-1.843,4.406-8.662,6.939-9.398,11.932
	c-1.514,0.23-2.554,0.786-3.248,1.578c-2.286,2.605-0.808,7.764,0,12.306c0.44,2.478,0.682,4.774,0,6.368
	c-0.03,0.07-0.063,0.141-0.096,0.209l0.096,0.022l0.112,0.026c2.907-5.815-3.672-17.311,3.122-18.806
	c0.213,1.749,1.121,3.804,3.043,6.318l0.115-0.525c-6.284-8.217,1.502-11.09,5.671-15.391c7.996,8.731-0.252,10.314-0.071,20.414
	l0.306-0.074c-0.105-5.849,3.62-8.944,4.492-12.687c3.575,1.138,4.797,4.861,3.704,8.048c-0.912,2.654-4.908,4.182-5.127,7.188
	c-5.56,0.857,0.252,9.162-1.094,12.327l0.128,0.03c1.49-3.504-2.991-10.431,1.035-11.33c0.207,1.053,0.847,2.291,2.117,3.805
	l0.044-0.315c-4.154-4.951,0.408-6.68,2.726-9.272c5.21,5.261,0.314,6.214,0.876,12.3l0.181-0.045
	c-0.338-3.67,1.96-5.541,2.172-7.927v-0.693c-0.108-1.208-0.806-2.586-2.624-4.397c2.189-3.178,0.792-9.297-3.962-11.009
	c0.076-2.084-0.857-4.456-3.807-7.627c4.165-5.454,2.356-16.117-6.008-18.534c-0.943-4.683-3.491-8.002-7.151-10.33
	c-18.647-11.857-66.425,2.229-81.329-4.694c-0.991-21.643,7.848-51.492,8.189-78.521c8.587-4.193,14.937-7.503,20.563-11.131
	c1.658,0.129,3.311,0.343,4.954,0.678l0.042,0.025c2.164,1.163,5.136,4.855,7.142,9.188c0.486,3.398,0.042,11.087-1.64,13.97
	c-0.761,1.305-0.408,1.872,0.35,0.569c1.676-2.872,2.367-7.505,2.728-10.924c1.195,3.516,1.835,7.032,1.436,9.648
	c-0.24,1.569,0.256,1.545,0.496-0.024c1.153-7.553-2.136-16.812-5.89-21.738c1.559,0.526,3.13,1.177,4.712,1.975
	c3.854,1.942,8.155,4.92,12.606,8c0.932,0.647,1.872,1.294,2.815,1.94c2.48,2.378,5.568,7.821,6.198,12.17
	c0.072,0.489,0.146,1.017,0.254,1.519c0.503,2.347,1.024,2.038,0.76,0.005c-0.05-0.377-0.741-6.568-2.784-10.732
	c2.869,1.854,6.774,4.158,9.607,5.493c2.318,1.486,4.179,5.025,5.21,8.596c0.684,2.364,0.893,1.426,0.599-0.024
	c-0.662-3.275-1.278-4.917-2.895-7.566c1.622,0.548,8.95,2.313,10.508,2.488c1.141,0.13,1.262-1.056,0.127-1.212
	c-2.811-0.387-9.179-2.357-15.393-5.722c-5.477-2.964-10.784-6.885-14.04-9.13c-0.869-0.603-1.735-1.203-2.594-1.792
	c1.288-0.402,2.656-1.018,3.874-1.566l7.286-3.034c1.665,0.512,2.558,4.163,6.469,6.385c1.023,0.583,1.23,0.008,0.238-0.647
	c-2.631-1.736-4.023-4.988-5.348-6.468l4.424-2.176c1.139-0.532,1.047-1.308-0.092-0.775c-4.322,2.017-8.744,3.503-13.032,5.439
	c-2.256,1.018-5.401,1.288-6.634,0.765c-0.108-0.046-0.224-0.061-0.336-0.046c-2.432-1.604-4.787-3.051-7.027-4.181
	c-3.801-1.913-7.502-3.087-11.172-3.808c5.244-3.811,10.61-8.605,17.924-15.953c3.378-3.395,6.816-7.32,10.314-11.522
	c0.202-0.073,0.394-0.19,0.563-0.342c1.903-1.737,7.493-3.988,11.878-4.482c8.334-0.938,16.691-2.597,25.121-3.453
	c2.218-0.226,2.026-1.355-0.193-1.132l-8.679,0.727c1.63-3.112,2.568-8.684,6.353-13.231c1.431-1.716,0.807-2.323-0.707-0.683
	c-5.789,6.271-5.678,11.973-8.339,14.053l-14.046,1.942c-2.365,0.267-5.023,0.571-7.44,1.094c1.221-1.513,2.453-3.048,3.693-4.59
	c4.634-5.758,12.076-15.496,20.247-24.08c9.271-9.739,19.442-17.713,24.149-20.575C348.392,188.237,347.64,186.729,345.718,187.853z
	 M139.303,380.492c-1.646,1.419-2,4.018-0.984,5.496c-3.364,3.349,0.048,4.093-0.251,7.365l0.1,0.024
	c0.319-3.441-2.452-3.982,0.493-6.956c1.314,1.463,3.897,2.444,1.543,5.242l0.028,0.183c0.72-0.861,1.082-1.563,1.197-2.153
	c2.133,0.476,0.056,3.929,0.465,5.996c-1.735-0.623-3.628-1.154-5.41-1.901c-0.815-0.344-1.607-0.73-2.35-1.192
	c-1.949-2.502-3.521-5.146-3.572-8.536c-0.095-6.368,2.115-10.435,5.921-12.923c0.253-0.165,0.513-0.324,0.78-0.475
	c-0.267,0.388-0.504,0.782-0.704,1.18h-0.003l-0.073,0.153c-0.496,1.044-0.75,2.124-0.705,3.191
	c0.043,1.001,0.294,1.848,0.705,2.585C137.11,378.894,138.106,379.756,139.303,380.492z M314.269,371.987
	c-0.22-0.458-0.479-0.899-0.773-1.322c0.266,0.15,0.524,0.307,0.773,0.471c3.806,2.488,6.017,6.556,5.922,12.923
	c-0.052,3.391-1.624,6.034-3.571,8.536c-0.743,0.462-1.534,0.849-2.35,1.192c-1.781,0.747-3.672,1.278-5.408,1.9
	c0.406-2.069-1.665-5.522,0.462-5.997c0.118,0.596,0.48,1.297,1.2,2.153l0.023-0.179c-2.352-2.801,0.23-3.78,1.542-5.247
	c2.949,2.978,0.177,3.517,0.497,6.96l0.102-0.025c-0.302-3.274,3.107-4.017-0.257-7.365c1.02-1.477,0.665-4.075-0.982-5.495
	c1.196-0.736,2.194-1.6,2.82-2.724c0.41-0.736,0.661-1.583,0.704-2.583C315.02,374.065,314.747,372.986,314.269,371.987z"/>
<path style="fill-rule:evenodd;clip-rule:evenodd;fill:#76B82A;" d="M157.927,284.522c-3.526-2.94-8.484-2.568-11.267-1.448
	c-7.563,3.041-7.483,14.429-13.512,18.635c5.037-2.027,9.396-1.014,14.707-1.608c6.765-0.758,12.043-7.32,10.32-13.849
	c-3.27,0.508-6.828,2.038-9.358,4.647c-2.63,2.708-6.216,5.964-9.99,7.04c3.559-1.156,7.424-5.626,9.185-7.728
	C149.05,288.974,152.757,285.57,157.927,284.522z"/>
<path style="fill-rule:evenodd;clip-rule:evenodd;fill:#53821D;" d="M166.631,292.066c-3.849-0.085-6.904,2.75-8.143,4.939
	c-3.366,5.945,2.639,13.368,0.885,19.277c2.241-3.963,5.629-5.576,8.798-8.742c4.038-4.032,4.067-11.095-0.475-14.472
	c-1.878,2.042-3.41,4.905-3.705,7.939c-0.308,3.149-0.957,7.158-2.867,9.835c1.728-2.617,1.925-7.567,1.98-9.865
	C163.14,299.623,163.79,295.455,166.631,292.066z"/>
<path style="fill-rule:evenodd;clip-rule:evenodd;fill:#3D6315;" d="M169.768,277.991c1.248-3.642-0.528-7.412-2.238-9.257
	c-4.645-5.011-13.539-1.539-18.637-5.002c3.096,3.337,3.607,7.055,5.662,11.035c2.618,5.069,9.338,7.238,13.934,3.935
	c-1.376-2.409-3.64-4.737-6.441-5.938c-2.908-1.248-6.531-3.082-8.504-5.715c1.971,2.44,6.628,4.13,8.801,4.88
	C163.624,272.372,167.399,274.256,169.768,277.991z"/>
<path style="fill-rule:evenodd;clip-rule:evenodd;fill:#76B82A;" d="M181.623,288.992c4.164,1.487,6.278,5.782,6.71,8.639
	c1.173,7.76-8.313,13.26-8.855,20.318c-0.78-5.169-3.752-8.29-5.855-12.987c-2.677-5.982,0.187-13.57,6.445-15.33
	c1.178,2.961,1.648,6.66,0.72,10.035c-0.962,3.506-1.909,8.071-0.959,11.729c-0.78-3.517,1.04-8.908,1.922-11.397
	C182.27,298.533,183.281,293.793,181.623,288.992z"/>
<path style="fill-rule:evenodd;clip-rule:evenodd;fill:#3D6315;" d="M202.242,284.545c3.357,1.199,5.062,4.662,5.41,6.966
	c0.945,6.257-6.703,10.69-7.141,16.381c-0.628-4.168-3.024-6.685-4.72-10.472c-2.159-4.823,0.151-10.94,5.197-12.36
	c0.949,2.389,1.328,5.37,0.58,8.092c-0.775,2.826-1.539,6.509-0.773,9.456c-0.629-2.836,0.837-7.183,1.549-9.188
	C202.763,292.237,203.579,288.415,202.242,284.545z"/>
<path style="fill-rule:evenodd;clip-rule:evenodd;fill:#76B82A;" d="M207.969,285.021c2.138-1.814,5.166-1.611,6.871-0.941
	c4.631,1.819,4.64,8.771,8.341,11.309c-3.085-1.212-5.741-0.572-8.986-0.908c-4.134-0.429-7.389-4.408-6.37-8.403
	c1.999,0.295,4.179,1.211,5.737,2.791c1.618,1.641,3.824,3.61,6.133,4.249c-2.178-0.689-4.56-3.398-5.646-4.672
	C213.41,287.693,211.13,285.634,207.969,285.021z"/>
<path style="fill-rule:evenodd;clip-rule:evenodd;fill:#76B82A;" d="M173.432,259.045c-2.759,2.34-6.669,2.078-8.869,1.214
	c-5.98-2.349-5.989-11.323-10.769-14.599c3.983,1.564,7.412,0.737,11.601,1.173c5.336,0.553,9.539,5.691,8.222,10.847
	c-2.581-0.378-5.394-1.562-7.406-3.601c-2.09-2.119-4.938-4.66-7.917-5.485c2.812,0.888,5.887,4.386,7.288,6.031
	C166.407,255.593,169.352,258.251,173.432,259.045z"/>
<path style="fill-rule:evenodd;clip-rule:evenodd;fill:#76B82A;" d="M120.14,204.613c0.956-5.381-2.357-10.284-5.16-12.498
	c-7.611-6.017-19.331,0.795-27.24-2.951c5.071,4.006,6.599,9.11,10.352,14.246c4.78,6.542,14.682,8.119,20.409,2.481
	c-2.458-3.08-6.141-5.852-10.333-6.925c-4.353-1.116-9.835-2.899-13.179-6.161c3.298,2.994,10.202,4.346,13.414,4.924
	C110.295,198.072,116.003,199.891,120.14,204.613z"/>
<path style="fill-rule:evenodd;clip-rule:evenodd;fill:#3D6315;" d="M132.473,199.987c3.441-2.555,4.189-7.135,3.782-9.907
	c-1.104-7.528-11.455-9.949-13.952-16.341c0.738,5.015-1.137,8.749-1.76,13.698c-0.794,6.304,4.005,12.532,10.307,12.398
	c0.255-3.08-0.355-6.644-2.167-9.511c-1.882-2.979-4.051-6.947-4.203-10.607c0.27,3.482,3.48,7.969,5.001,10.027
	C130.377,190.957,132.654,195.066,132.473,199.987z"/>
<path style="fill-rule:evenodd;clip-rule:evenodd;fill:#5D9021;" d="M138.399,235.187c-2.775-2.322-6.684-2.035-8.878-1.156
	c-5.965,2.387-5.916,11.363-10.674,14.671c3.973-1.591,7.408-0.788,11.594-1.249c5.332-0.588,9.502-5.756,8.152-10.903
	c-2.579,0.396-5.385,1.598-7.383,3.652c-2.076,2.13-4.907,4.691-7.883,5.536c2.807-0.907,5.859-4.426,7.25-6.079
	C131.397,238.686,134.324,236.006,138.399,235.187z"/>
<path style="fill-rule:evenodd;clip-rule:evenodd;fill:#76B82A;" d="M138.81,222.756c-0.425-3.594-3.465-6.066-5.665-6.933
	c-5.977-2.355-12.101,4.207-17.832,3.349c3.982,1.568,5.929,4.51,9.292,7.046c4.283,3.231,10.861,2.333,13.411-2.337
	c-2.147-1.482-5.013-2.533-7.876-2.41c-2.973,0.126-6.789,0.047-9.534-1.381c2.664,1.267,7.299,0.801,9.445,0.552
	C131.317,220.496,135.283,220.555,138.81,222.756z"/>
<path style="fill-rule:evenodd;clip-rule:evenodd;fill:#AFCA0B;" d="M149.023,205.422c-4.824-1.083-7.756-5.561-8.623-8.671
	c-2.36-8.452,7.418-15.848,7.058-23.755c1.57,5.631,5.294,8.689,8.267,13.614c3.787,6.273,1.642,15.084-5.063,17.893
	c-1.71-3.127-2.735-7.168-2.165-11.04c0.589-4.021,1.018-9.218-0.536-13.147c1.346,3.797,0.062,10.028-0.579,12.91
	C147.006,194.923,146.529,200.32,149.023,205.422z"/>
<path style="fill-rule:evenodd;clip-rule:evenodd;fill:#76B82A;" d="M120.498,147.456c-0.219-4.429-3.728-7.706-6.345-8.949
	c-7.11-3.379-15.144,4.131-22.078,2.603c4.736,2.249,6.871,6.009,10.769,9.391c4.965,4.308,13.082,3.76,16.59-1.736
	c-2.502-1.99-5.917-3.515-9.427-3.604c-3.645-0.094-8.304-0.511-11.538-2.485c3.15,1.771,8.855,1.59,11.499,1.465
	C111.526,144.066,116.37,144.471,120.498,147.456z"/>
<path style="fill-rule:evenodd;clip-rule:evenodd;fill:#3D6315;" d="M177.203,187.359c0.879-2.994-0.697-5.982-2.149-7.413
	c-3.944-3.889-11.018-0.753-15.273-3.371c2.628,2.589,3.178,5.581,4.987,8.729c2.305,4.01,7.825,5.521,11.426,2.679
	c-1.203-1.9-3.12-3.704-5.432-4.573c-2.399-0.904-5.4-2.258-7.094-4.317c1.685,1.904,5.518,3.102,7.304,3.63
	C172.024,183.034,175.149,184.421,177.203,187.359z"/>
<path style="fill-rule:evenodd;clip-rule:evenodd;fill:#AFCA0B;" d="M177.665,214.387c-2.68-1.324-3.765-4.373-3.831-6.325
	c-0.182-5.302,6.618-8.256,7.533-12.954c0.12,3.533,1.873,5.861,2.918,9.179c1.331,4.227-1.185,9.099-5.525,9.794
	c-0.56-2.081-0.586-4.602,0.3-6.796c0.92-2.279,1.912-5.272,1.559-7.802c0.25,2.423-1.393,5.902-2.18,7.504
	C177.976,207.93,176.926,211.034,177.665,214.387z"/>
<path style="fill-rule:evenodd;clip-rule:evenodd;fill:#76B82A;" d="M174.438,225.931c-2.773,1.114-5.769-0.11-7.268-1.362
	c-4.073-3.401-1.739-10.438-4.63-14.253c2.713,2.266,5.616,2.513,8.786,3.947c4.038,1.827,5.991,6.951,3.614,10.647
	c-1.924-0.971-3.821-2.632-4.865-4.755c-1.084-2.206-2.653-4.941-4.774-6.366c1.972,1.431,3.47,4.975,4.138,6.63
	C169.833,221.393,171.446,224.245,174.438,225.931z"/>
<path style="fill-rule:evenodd;clip-rule:evenodd;fill:#76B82A;" d="M184.313,229.63c-0.756-3.033,0.944-5.959,2.456-7.331
	c4.108-3.73,11.06-0.301,15.426-2.746c-2.738,2.483-3.411,5.455-5.351,8.532c-2.473,3.918-8.06,5.203-11.547,2.211
	c1.282-1.854,3.275-3.579,5.625-4.354c2.439-0.807,5.498-2.038,7.278-4.03c-1.765,1.837-5.65,2.877-7.46,3.332
	C189.675,225.513,186.489,226.774,184.313,229.63z"/>
<path style="fill-rule:evenodd;clip-rule:evenodd;fill:#76B82A;" d="M186.369,186.195c-2.628-1.142-3.809-4.009-3.965-5.874
	c-0.423-5.067,5.946-8.213,6.602-12.753c0.28,3.376,2.067,5.521,3.224,8.648c1.473,3.982-0.706,8.763-4.828,9.632
	c-0.633-1.966-0.777-4.377-0.032-6.518c0.773-2.225,1.583-5.136,1.126-7.542c0.353,2.308-1.056,5.715-1.733,7.285
	C186.363,180,185.504,183.02,186.369,186.195z"/>
<path style="fill-rule:evenodd;clip-rule:evenodd;fill:#5D9021;" d="M195.914,194.001c-2.149-1.377-2.782-4.066-2.654-5.729
	c0.346-4.517,6.395-6.381,7.614-10.28c-0.231,3.008,1.036,5.149,1.61,8.063c0.73,3.711-1.864,7.608-5.612,7.788
	c-0.278-1.819-0.064-3.961,0.896-5.738c0.996-1.847,2.12-4.293,2.059-6.473c-0.017,2.08-1.74,4.877-2.559,6.162
	C196.787,188.551,195.604,191.085,195.914,194.001z"/>
<path style="fill-rule:evenodd;clip-rule:evenodd;fill:#76B82A;" d="M213.398,205.176c-2.542-0.23-4.344-2.325-4.997-3.858
	c-1.776-4.167,2.731-8.611,2.016-12.634c1.182,2.777,3.294,4.092,5.146,6.413c2.36,2.956,1.855,7.61-1.388,9.498
	c-1.086-1.485-1.883-3.485-1.852-5.505c0.032-2.098-0.099-4.787-1.158-6.693c0.944,1.853,0.706,5.129,0.572,6.646
	C211.66,199.939,211.779,202.732,213.398,205.176z"/>
<path style="fill-rule:evenodd;clip-rule:evenodd;fill:#5D9021;" d="M209.325,243.29c-3.409-0.309-5.826-3.118-6.701-5.174
	c-2.382-5.589,3.663-11.548,2.703-16.943c1.585,3.724,4.417,5.488,6.902,8.599c3.165,3.966,2.487,10.206-1.862,12.738
	c-1.456-1.991-2.524-4.673-2.482-7.382c0.042-2.814-0.132-6.419-1.552-8.976c1.266,2.485,0.946,6.878,0.767,8.913
	C206.994,236.266,207.153,240.014,209.325,243.29z"/>
<path style="fill-rule:evenodd;clip-rule:evenodd;fill:#5D9021;" d="M122.903,160.154c-2.884-1.843-6.514-1.101-8.466-0.011
	c-5.305,2.961-4.174,11.373-8.236,15.05c3.533-1.973,6.852-1.634,10.722-2.574c4.93-1.198,8.215-6.547,6.326-11.211
	c-2.371,0.684-4.857,2.15-6.481,4.317c-1.69,2.251-4.035,4.995-6.723,6.147c2.522-1.19,4.959-4.86,6.063-6.579
	C116.76,164.281,119.18,161.416,122.903,160.154z"/>
<path style="fill-rule:evenodd;clip-rule:evenodd;fill:#76B82A;" d="M136.818,164.612c-2.242-0.313-4.221,1.135-5.094,2.329
	c-2.374,3.244,0.628,7.991-0.8,11.323c1.581-2.162,3.67-2.873,5.738-4.507c2.634-2.08,3.133-6.204,0.71-8.487
	c-1.236,1.065-2.327,2.633-2.706,4.385c-0.395,1.819-1.048,4.116-2.347,5.551c1.189-1.412,1.642-4.291,1.831-5.629
	C134.263,168.789,134.928,166.398,136.818,164.612z"/>
<path style="fill-rule:evenodd;clip-rule:evenodd;fill:#53821D;" d="M128.45,148.218c3.086-1.063,4.682-4.215,5.023-6.32
	c0.931-5.717-6.024-9.855-6.366-15.069c-0.619,3.809-2.838,6.088-4.43,9.536c-2.026,4.393,0.025,10.017,4.629,11.369
	c0.894-2.176,1.271-4.903,0.614-7.401c-0.681-2.595-1.342-5.973-0.61-8.664c-0.605,2.59,0.693,6.584,1.324,8.427
	C129.006,141.183,129.713,144.689,128.45,148.218z"/>
<path style="fill-rule:evenodd;clip-rule:evenodd;fill:#76B82A;" d="M147.846,134.756c1.668-1.727,1.663-4.328,1.185-5.823
	c-1.299-4.06-7.243-4.452-9.208-7.756c0.867,2.704,0.172,4.94,0.28,7.733c0.139,3.557,3.362,6.561,6.833,5.91
	c-0.141-1.726-0.804-3.639-2.069-5.059c-1.314-1.475-2.876-3.469-3.294-5.479c0.468,1.9,2.653,4.087,3.683,5.086
	C145.861,129.957,147.496,132.02,147.846,134.756z"/>
<path style="fill-rule:evenodd;clip-rule:evenodd;fill:#5D9021;" d="M141.045,144.406c-1.09-1.404-2.996-1.672-4.14-1.479
	c-3.11,0.525-4.02,4.837-6.647,5.93c2.072-0.351,3.636,0.392,5.692,0.606c2.621,0.272,5.158-1.774,5.046-4.383
	c-1.279-0.079-2.75,0.206-3.923,0.984c-1.218,0.807-2.843,1.741-4.358,1.837c1.441-0.144,3.272-1.515,4.111-2.164
	C137.321,145.356,139.004,144.375,141.045,144.406z"/>
<path style="fill-rule:evenodd;clip-rule:evenodd;fill:#AFCA0B;" d="M154.379,141.094c2.645-0.029,4.678-2.045,5.479-3.577
	c2.177-4.16-2.115-9.12-1.045-13.216c-1.45,2.771-3.739,3.956-5.843,6.202c-2.681,2.861-2.54,7.71,0.655,9.926
	c1.244-1.445,2.231-3.445,2.363-5.535c0.14-2.17,0.496-4.937,1.746-6.82c-1.127,1.837-1.15,5.241-1.136,6.82
	C156.604,135.825,156.252,138.702,154.379,141.094z"/>
<path style="fill-rule:evenodd;clip-rule:evenodd;fill:#76B82A;" d="M162.662,160.873c-0.98-2.456-3.595-3.626-5.311-3.821
	c-4.665-0.53-7.744,5.261-11.951,5.74c3.107,0.353,5.038,2.061,7.892,3.214c3.635,1.469,8.107-0.41,9.023-4.189
	c-1.796-0.639-4.018-0.838-6.015-0.21c-2.074,0.652-4.783,1.319-6.99,0.831c2.12,0.389,5.303-0.817,6.77-1.399
	C156.945,160.696,159.756,159.987,162.662,160.873z"/>
<path style="fill-rule:evenodd;clip-rule:evenodd;fill:#5D9021;" d="M144.394,120.239c1.862-2.401,1.499-5.67,0.693-7.483
	c-2.19-4.928-9.717-4.606-12.64-8.493c1.46,3.282,0.893,6.188,1.411,9.685c0.661,4.454,5.124,7.789,9.4,6.496
	c-0.413-2.15-1.509-4.466-3.294-6.078c-1.853-1.674-4.089-3.969-4.891-6.438c0.849,2.326,3.896,4.776,5.326,5.891
	C141.241,114.475,143.579,116.846,144.394,120.239z"/>
<path style="fill-rule:evenodd;clip-rule:evenodd;fill:#3D6315;" d="M147.969,110.205c1.588-1.123,1.976-3.193,1.821-4.454
	c-0.422-3.427-5.092-4.634-6.157-7.561c0.281,2.282-0.608,3.957-0.943,6.195c-0.426,2.852,1.685,5.727,4.545,5.733
	c0.148-1.395-0.09-3.017-0.882-4.337c-0.823-1.371-1.764-3.194-1.795-4.856c0.087,1.584,1.495,3.652,2.163,4.602
	C147.113,106.086,148.103,107.975,147.969,110.205z"/>
<path style="fill-rule:evenodd;clip-rule:evenodd;fill:#53821D;" d="M176.576,150.528c1.862-2.401,1.498-5.67,0.692-7.483
	c-2.189-4.928-9.716-4.606-12.64-8.494c1.46,3.282,0.893,6.188,1.411,9.685c0.661,4.455,5.125,7.79,9.4,6.497
	c-0.414-2.151-1.509-4.467-3.294-6.078c-1.853-1.675-4.09-3.969-4.892-6.438c0.849,2.326,3.895,4.775,5.326,5.891
	C173.423,144.764,175.761,147.134,176.576,150.528z"/>
<path style="fill-rule:evenodd;clip-rule:evenodd;fill:#53821D;" d="M134.238,86.271c1.446-4.078-0.504-8.336-2.404-10.429
	c-5.161-5.687-15.197-1.892-20.886-5.844c3.439,3.788,3.969,7.972,6.231,12.469c2.882,5.729,10.408,8.248,15.613,4.59
	c-1.519-2.725-4.034-5.368-7.168-6.75c-3.254-1.438-7.303-3.542-9.489-6.523c2.186,2.767,7.4,4.719,9.833,5.588
	C127.402,79.883,131.623,82.045,134.238,86.271z"/>
<path style="fill-rule:evenodd;clip-rule:evenodd;fill:#76B82A;" d="M148.165,84.802c3.425-0.519,5.697-3.504,6.457-5.637
	c2.066-5.792-4.404-11.445-3.762-16.955c-1.376,3.858-4.13,5.813-6.451,9.109c-2.957,4.199-1.892,10.464,2.656,12.758
	c1.35-2.102,2.266-4.876,2.06-7.61c-0.214-2.841-0.257-6.495,1.022-9.165c-1.128,2.589-0.538,7.008-0.232,9.054
	C150.094,77.562,150.161,81.358,148.165,84.802z"/>
<path style="fill-rule:evenodd;clip-rule:evenodd;fill:#53821D;" d="M163.448,95.585c2.549-1.346,3.515-4.313,3.528-6.197
	c0.037-5.116-6.595-7.784-7.601-12.288c-0.023,3.408-1.651,5.698-2.571,8.923c-1.173,4.107,1.38,8.738,5.582,9.294
	c0.484-2.021,0.445-4.451-0.468-6.543c-0.946-2.173-1.981-5.032-1.707-7.479c-0.177,2.342,1.497,5.652,2.298,7.176
	C162.979,89.37,164.072,92.334,163.448,95.585z"/>
<path style="fill-rule:evenodd;clip-rule:evenodd;fill:#76B82A;" d="M136.236,91.019c-2.338-1.686-5.425-1.233-7.118-0.409
	c-4.601,2.239-4.047,9.366-7.636,12.266c3.063-1.493,5.838-1.051,9.138-1.658c4.201-0.774,7.217-5.116,5.849-9.128
	c-2.025,0.463-4.186,1.578-5.655,3.324c-1.526,1.813-3.628,4.009-5.943,4.851c2.177-0.882,4.4-3.852,5.409-5.246
	C130.875,94.198,133.045,91.903,136.236,91.019z"/>
<path style="fill-rule:evenodd;clip-rule:evenodd;fill:#3D6315;" d="M187.604,112.385c-1.404-2.517-0.597-5.532,0.417-7.118
	c2.757-4.311,9.771-2.936,13.067-6.165c-1.837,2.871-1.719,5.678-2.704,8.885c-1.255,4.083-5.919,6.576-9.745,4.752
	c0.695-1.958,2.052-3.975,3.957-5.232c1.977-1.306,4.402-3.14,5.506-5.341c-1.127,2.06-4.335,3.924-5.836,4.766
	C191.383,107.428,188.852,109.318,187.604,112.385z"/>
<path style="fill-rule:evenodd;clip-rule:evenodd;fill:#5D9021;" d="M195.114,115.385c-0.089-1.633,1.071-2.968,1.983-3.524
	c2.477-1.511,5.711,0.935,8.194,0.109c-1.651,1.006-2.289,2.466-3.588,3.855c-1.656,1.769-4.653,1.879-6.149-0.002
	c0.841-0.826,2.035-1.516,3.318-1.682c1.332-0.174,3.025-0.505,4.135-1.353c-1.087,0.77-3.186,0.922-4.16,0.978
	C198.273,113.799,196.513,114.133,195.114,115.385z"/>
<path style="fill-rule:evenodd;clip-rule:evenodd;fill:#76B82A;" d="M172.073,116.197c-2.784-0.909-4.262-3.714-4.6-5.599
	c-0.918-5.118,5.265-8.932,5.495-13.616c0.611,3.409,2.636,5.423,4.113,8.494c1.881,3.913,0.122,8.99-3.99,10.27
	c-0.833-1.94-1.211-4.381-0.658-6.633c0.573-2.339,1.117-5.38,0.421-7.784c0.581,2.315-0.526,5.919-1.066,7.582
	C171.472,109.891,170.889,113.048,172.073,116.197z"/>
<path style="fill-rule:evenodd;clip-rule:evenodd;fill:#76B82A;" d="M192.058,138.945c-1.968-2.169-1.863-5.339-1.223-7.142
	c1.738-4.901,8.998-5.151,11.519-9.105c-1.159,3.264-0.398,6.015-0.636,9.416c-0.304,4.33-4.346,7.869-8.553,6.944
	c0.238-2.098,1.118-4.406,2.714-6.088c1.657-1.747,3.637-4.12,4.223-6.553c-0.643,2.299-3.39,4.881-4.682,6.059
	C194.66,133.169,192.588,135.622,192.058,138.945z"/>
<path style="fill-rule:evenodd;clip-rule:evenodd;fill:#76B82A;" d="M194.774,40.56c-3.912-2.684-4.928-7.72-4.592-10.802
	c0.911-8.372,12.262-11.477,14.759-18.651c-0.608,5.578,1.62,9.631,2.513,15.08c1.137,6.941-3.915,14.027-10.891,14.139
	c-0.409-3.397,0.118-7.363,2.006-10.61c1.96-3.374,4.194-7.851,4.211-11.906c-0.155,3.864-3.521,8.958-5.119,11.298
	C196.721,30.485,194.371,35.126,194.774,40.56z"/>
<path style="fill-rule:evenodd;clip-rule:evenodd;fill:#5D9021;" d="M185.786,48.935c0.496-3.549-1.796-6.68-3.685-8.063
	c-5.133-3.756-12.645,0.993-17.918-1.268c3.42,2.501,4.546,5.807,7.129,9.08c3.292,4.17,9.816,4.961,13.432,1.127
	c-1.685-1.957-4.166-3.684-6.938-4.285c-2.879-0.625-6.515-1.66-8.784-3.715c2.233,1.881,6.789,2.599,8.907,2.899
	C179.177,44.889,182.961,45.941,185.786,48.935z"/>
<path style="fill-rule:evenodd;clip-rule:evenodd;fill:#5D9021;" d="M199.114,49.45c-0.398-2.854,1.444-5.373,2.964-6.485
	c4.129-3.021,10.171,0.798,14.412-1.02c-2.75,2.012-3.656,4.671-5.734,7.304c-2.647,3.353-7.896,3.99-10.804,0.907
	c1.355-1.574,3.351-2.963,5.581-3.446c2.316-0.503,5.24-1.336,7.066-2.988c-1.796,1.513-5.46,2.09-7.164,2.332
	C204.431,46.195,201.387,47.043,199.114,49.45z"/>
<path style="fill-rule:evenodd;clip-rule:evenodd;fill:#53821D;" d="M186.981,62.479c-0.701-2.797-3.353-4.441-5.178-4.903
	c-4.96-1.254-9.131,4.551-13.745,4.455c3.304,0.834,5.141,2.961,8.054,4.623c3.711,2.118,8.815,0.741,10.356-3.207
	c-1.846-0.952-4.217-1.492-6.465-1.104c-2.336,0.401-5.358,0.725-7.671-0.123c2.232,0.729,5.846-0.109,7.517-0.523
	C180.832,61.453,183.972,61.097,186.981,62.479z"/>
<path style="fill-rule:evenodd;clip-rule:evenodd;fill:#76B82A;" d="M185.684,89.732c-1.206-1.807-3.506-2.3-4.919-2.164
	c-3.837,0.369-5.324,5.546-8.622,6.649c2.556-0.246,4.399,0.796,6.888,1.237c3.17,0.56,6.444-1.712,6.535-4.904
	c-1.552-0.207-3.371,0.011-4.869,0.857c-1.555,0.878-3.618,1.875-5.474,1.86c1.77-0.049,4.121-1.561,5.201-2.278
	C181.061,90.565,183.197,89.516,185.684,89.732z"/>
<path style="fill-rule:evenodd;clip-rule:evenodd;fill:#AFCA0B;" d="M187.544,83.361c0.205-3.068-1.949-5.606-3.651-6.672
	c-4.625-2.897-10.76,1.63-15.412,0.021c3.081,1.93,4.248,4.689,6.663,7.331c3.074,3.365,8.706,3.639,11.563,0.135
	c-1.563-1.571-3.792-2.895-6.202-3.237c-2.503-0.358-5.677-1.018-7.747-2.637c2.028,1.472,5.971,1.804,7.802,1.93
	C181.638,80.307,184.942,80.974,187.544,83.361z"/>
<path style="fill-rule:evenodd;clip-rule:evenodd;fill:#76B82A;" d="M196.84,85.288c1.615-1.452,1.775-3.799,1.439-5.177
	c-0.914-3.746-6.251-4.477-7.813-7.584c0.609,2.495-0.16,4.468-0.24,6.994c-0.102,3.218,2.614,6.133,5.787,5.767
	c-0.017-1.566-0.493-3.335-1.544-4.696c-1.091-1.414-2.373-3.313-2.622-5.153c0.301,1.745,2.133,3.856,2.998,4.822
	C195.354,80.831,196.698,82.796,196.84,85.288z"/>
<path style="fill-rule:evenodd;clip-rule:evenodd;fill:#AFCA0B;" d="M219.005,61.977c3.071,1.101,6.287-0.358,7.871-1.785
	c4.303-3.877,1.468-11.454,4.462-15.733c-2.865,2.584-6.021,2.972-9.419,4.666c-4.328,2.158-6.247,7.826-3.502,11.76
	c2.058-1.138,4.058-3.027,5.108-5.387c1.092-2.449,2.691-5.497,4.945-7.138c-2.092,1.641-3.579,5.568-4.24,7.399
	C223.84,56.838,222.198,60.015,219.005,61.977z"/>
<path style="fill-rule:evenodd;clip-rule:evenodd;fill:#76B82A;" d="M208.232,72.349c1.311-0.902,1.648-2.592,1.533-3.625
	c-0.31-2.807-4.117-3.841-4.958-6.245c0.207,1.869-0.538,3.229-0.835,5.057c-0.378,2.328,1.321,4.701,3.66,4.735
	c0.136-1.139-0.044-2.469-0.679-3.557c-0.659-1.13-1.411-2.629-1.419-3.99c0.055,1.295,1.186,3.002,1.723,3.786
	C207.574,68.972,208.364,70.526,208.232,72.349z"/>
<path style="fill-rule:evenodd;clip-rule:evenodd;fill:#76B82A;" d="M209.29,59.542c1.868,0.322,3.563-0.837,4.326-1.813
	c2.073-2.651-0.312-6.704,0.973-9.454c-1.38,1.767-3.148,2.306-4.922,3.617c-2.26,1.67-2.789,5.107-0.823,7.083
	c1.064-0.858,2.019-2.141,2.383-3.596c0.379-1.513,0.987-3.418,2.112-4.583c-1.031,1.149-1.488,3.546-1.683,4.662
	C211.542,56.115,210.921,58.099,209.29,59.542z"/>
<path style="fill-rule:evenodd;clip-rule:evenodd;fill:#5D9021;" d="M179.207,159.069c2.354,1.444,3.095,4.342,2.992,6.144
	c-0.28,4.895-6.786,7.038-8.024,11.284c0.188-3.261-1.229-5.551-1.91-8.692c-0.868-4.001,1.857-8.271,5.91-8.545
	c0.339,1.963,0.151,4.285-0.85,6.229c-1.039,2.02-2.204,4.69-2.093,7.047c-0.025-2.251,1.78-5.313,2.639-6.721
	C178.376,164.985,179.604,162.217,179.207,159.069z"/>
<path style="fill-rule:evenodd;clip-rule:evenodd;fill:#76B82A;" d="M185.015,154.302c1.951-0.636,2.987-2.601,3.224-3.919
	c0.645-3.584-3.684-6.258-3.844-9.54c-0.429,2.388-1.848,3.797-2.883,5.948c-1.32,2.74-0.089,6.296,2.79,7.194
	c0.585-1.359,0.851-3.068,0.464-4.645c-0.4-1.639-0.781-3.769-0.292-5.453c-0.408,1.621,0.367,4.146,0.743,5.311
	C185.439,149.885,185.846,152.097,185.015,154.302z"/>
<path style="fill-rule:evenodd;clip-rule:evenodd;fill:#3D6315;" d="M249.282,65.224c-0.244-4.403,2.886-8.008,5.346-9.51
	c6.682-4.081,15.407,2.513,22.104,0.282c-4.451,2.716-6.171,6.657-9.676,10.406c-4.463,4.775-12.547,5.077-16.587,0.005
	c2.269-2.229,5.488-4.091,8.948-4.543c3.595-0.471,8.159-1.367,11.155-3.656c-2.933,2.078-8.594,2.492-11.222,2.643
	C257.802,60.94,253.054,61.842,249.282,65.224z"/>
<path style="fill-rule:evenodd;clip-rule:evenodd;fill:#76B82A;" d="M234.895,68.387c-1.471-2.035-1.079-4.724-0.363-6.199
	c1.947-4.009,8.154-3.532,10.678-6.66c-1.298,2.67-0.909,5.086-1.438,7.96c-0.67,3.66-4.449,6.289-7.946,5.101
	c0.402-1.765,1.373-3.647,2.893-4.928c1.578-1.331,3.488-3.163,4.22-5.18c-0.766,1.897-3.352,3.835-4.564,4.715
	C237.659,63.715,235.662,65.607,234.895,68.387z"/>
<path style="fill-rule:evenodd;clip-rule:evenodd;fill:#5D9021;" d="M224.053,76.514c1.08-1.495,0.792-3.471,0.265-4.554
	c-1.43-2.945-5.99-2.594-7.844-4.893c0.953,1.961,0.669,3.737,1.056,5.848c0.492,2.688,3.27,4.621,5.836,3.747
	c-0.295-1.296-1.007-2.679-2.123-3.62c-1.159-0.977-2.563-2.324-3.1-3.805c0.563,1.394,2.462,2.817,3.353,3.463
	C222.021,73.082,223.488,74.472,224.053,76.514z"/>
<path style="fill-rule:evenodd;clip-rule:evenodd;fill:#76B82A;" d="M249.426,75.162c-0.24,1.994,1.075,3.725,2.15,4.479
	c2.915,2.052,7.077-0.688,10.056,0.524c-1.942-1.366-2.608-3.207-4.09-5.016c-1.891-2.302-5.555-2.678-7.54-0.492
	c0.964,1.08,2.371,2.021,3.932,2.33c1.622,0.32,3.67,0.862,4.964,1.99c-1.272-1.031-3.834-1.386-5.024-1.532
	C253.174,77.36,251.041,76.81,249.426,75.162z"/>
<path style="fill-rule:evenodd;clip-rule:evenodd;fill:#5D9021;" d="M274.117,82.682c-1.256-2.818-0.107-5.955,1.127-7.55
	c3.349-4.331,10.697-2.196,14.521-5.325c-2.233,2.885-2.376,5.89-3.731,9.214c-1.729,4.235-6.938,6.446-10.845,4.137
	c0.929-2.021,2.569-4.042,4.718-5.2c2.235-1.205,4.994-2.927,6.383-5.17c-1.4,2.089-4.998,3.77-6.678,4.523
	C278.621,77.757,275.741,79.532,274.117,82.682z"/>
<path style="fill-rule:evenodd;clip-rule:evenodd;fill:#76B82A;" d="M264.189,81.631c-1.459-0.695-2.067-2.334-2.12-3.389
	c-0.14-2.865,3.513-4.514,3.97-7.06c0.094,1.908,1.058,3.153,1.649,4.938c0.753,2.273-0.568,4.926-2.909,5.335
	c-0.32-1.121-0.354-2.483,0.107-3.676c0.48-1.239,0.995-2.864,0.782-4.229c0.154,1.308-0.705,3.201-1.12,4.073
	C264.308,78.139,263.764,79.824,264.189,81.631z"/>
<path style="fill-rule:evenodd;clip-rule:evenodd;fill:#76B82A;" d="M242.46,80.692c1.196-1.086,2.945-1.028,3.939-0.675
	c2.704,0.958,2.842,4.962,5.023,6.353c-1.799-0.639-3.317-0.218-5.193-0.35c-2.388-0.167-4.342-2.397-3.831-4.717
	c1.157,0.131,2.431,0.617,3.359,1.497c0.964,0.914,2.272,2.005,3.614,2.329c-1.269-0.354-2.692-1.869-3.343-2.582
	C245.645,82.127,244.294,80.984,242.46,80.692z"/>
<path style="fill-rule:evenodd;clip-rule:evenodd;fill:#76B82A;" d="M253.81,89.524c-1.202-0.405-1.832-1.626-1.97-2.443
	c-0.379-2.22,2.315-3.848,2.434-5.876c0.25,1.479,1.12,2.359,1.748,3.695c0.801,1.703,0.018,3.895-1.77,4.432
	c-0.352-0.843-0.505-1.902-0.257-2.875c0.257-1.011,0.505-2.326,0.213-3.371c0.242,1.006-0.252,2.563-0.491,3.281
	C253.573,86.79,253.31,88.155,253.81,89.524z"/>
<path style="fill-rule:evenodd;clip-rule:evenodd;fill:#76B82A;" d="M231.508,90.262c1.868-0.921,4.013-0.228,5.12,0.563
	c3.008,2.147,1.758,7.158,3.968,9.655c-2.004-1.432-4.034-1.45-6.31-2.278c-2.902-1.056-4.528-4.512-3.072-7.205
	c1.388,0.573,2.792,1.626,3.628,3.046c0.872,1.475,2.104,3.292,3.652,4.169c-1.444-0.889-2.673-3.272-3.224-4.386
	C234.946,93.17,233.674,91.275,231.508,90.262z"/>
<path style="fill-rule:evenodd;clip-rule:evenodd;fill:#5D9021;" d="M225.651,82.312c1.061-1.791,3.236-2.382,4.597-2.325
	c3.691,0.155,5.382,5.035,8.596,5.92c-2.46-0.104-4.17,0.99-6.53,1.539c-3.005,0.7-6.255-1.306-6.507-4.358
	c1.476-0.277,3.227-0.162,4.703,0.57c1.534,0.76,3.563,1.608,5.337,1.498c-1.697,0.045-4.024-1.281-5.097-1.913
	C230.12,82.871,228.02,81.977,225.651,82.312z"/>
<path style="fill-rule:evenodd;clip-rule:evenodd;fill:#76B82A;" d="M229.226,64.627c-1.065-0.69-1.372-2.029-1.305-2.855
	c0.185-2.244,3.196-3.155,3.813-5.09c-0.121,1.495,0.503,2.563,0.78,4.013c0.353,1.847-0.947,3.778-2.812,3.857
	c-0.133-0.905-0.02-1.97,0.461-2.851c0.501-0.916,1.065-2.128,1.041-3.212c-0.014,1.034-0.878,2.419-1.288,3.057
	C229.674,61.919,229.079,63.177,229.226,64.627z"/>
<path style="fill-rule:evenodd;clip-rule:evenodd;fill:#3D6315;" d="M230.111,103.444c1.073-2.909-0.288-5.978-1.631-7.494
	c-3.648-4.121-10.873-1.49-14.915-4.372c2.431,2.744,2.774,5.747,4.356,8.989c2.015,4.131,7.386,6.001,11.147,3.426
	c-1.064-1.966-2.844-3.882-5.077-4.899c-2.319-1.059-5.202-2.603-6.742-4.759c1.542,2.002,5.262,3.447,6.997,4.091
	C225.268,98.807,228.273,100.394,230.111,103.444z"/>
<path style="fill-rule:evenodd;clip-rule:evenodd;fill:#53821D;" d="M240.866,111.322c-1.79-1.181-2.293-3.449-2.166-4.844
	c0.342-3.793,5.445-5.292,6.516-8.556c-0.227,2.526,0.812,4.34,1.263,6.796c0.57,3.128-1.653,6.374-4.805,6.482
	c-0.215-1.532-0.01-3.329,0.816-4.813c0.857-1.542,1.83-3.585,1.804-5.417c-0.037,1.748-1.516,4.079-2.219,5.15
	C241.661,106.752,240.638,108.868,240.866,111.322z"/>
<path style="fill-rule:evenodd;clip-rule:evenodd;fill:#5D9021;" d="M234.796,114.187c-0.269-2.481-2.346-4.207-3.855-4.82
	c-4.105-1.666-8.375,2.814-12.319,2.182c2.734,1.109,4.056,3.152,6.355,4.924c2.93,2.258,7.471,1.687,9.262-1.517
	c-1.469-1.037-3.438-1.782-5.412-1.717c-2.05,0.066-4.682-0.016-6.563-1.019c1.828,0.892,5.026,0.604,6.509,0.447
	C229.646,112.576,232.38,112.645,234.796,114.187z"/>
<path style="fill-rule:evenodd;clip-rule:evenodd;fill:#5D9021;" d="M226.223,124.741c0.724-1.795-0.067-3.736-0.877-4.708
	c-2.199-2.64-6.756-1.134-9.225-3.008c1.466,1.759,1.624,3.639,2.549,5.692c1.18,2.615,4.496,3.883,6.892,2.347
	c-0.627-1.247-1.702-2.476-3.076-3.153c-1.427-0.704-3.197-1.721-4.118-3.095c0.924,1.278,3.218,2.249,4.29,2.684
	C223.288,121.756,225.133,122.803,226.223,124.741z"/>
<path style="fill-rule:evenodd;clip-rule:evenodd;fill:#AFCA0B;" d="M267.017,107.715c1.099-2.242,3.639-3.158,5.269-3.221
	c4.426-0.17,6.914,5.497,10.84,6.245c-2.948,0.113-4.886,1.583-7.652,2.467c-3.523,1.125-7.6-0.958-8.193-4.579
	c1.734-0.474,3.84-0.505,5.674,0.228c1.906,0.76,4.408,1.578,6.518,1.275c-2.022,0.217-4.932-1.143-6.272-1.794
	C272.409,107.952,269.815,107.087,267.017,107.715z"/>
<path style="fill-rule:evenodd;clip-rule:evenodd;fill:#76B82A;" d="M264.607,99.809c-0.88-1.574-0.376-3.46,0.258-4.453
	c1.723-2.698,6.112-1.841,8.172-3.863c-1.147,1.797-1.072,3.553-1.688,5.559c-0.782,2.556-3.698,4.117-6.092,2.979
	c0.432-1.226,1.28-2.488,2.471-3.275c1.236-0.818,2.752-1.967,3.443-3.345c-0.705,1.29-2.71,2.457-3.65,2.984
	C266.97,96.706,265.388,97.89,264.607,99.809z"/>
<path style="fill-rule:evenodd;clip-rule:evenodd;fill:#76B82A;" d="M246.178,114.21c2.03-0.888,4.275-0.049,5.416,0.844
	c3.094,2.426,1.524,7.691,3.752,10.452c-2.061-1.617-4.217-1.734-6.596-2.724c-3.032-1.261-4.597-5.012-2.921-7.805
	c1.448,0.676,2.891,1.863,3.712,3.412c0.854,1.609,2.078,3.599,3.681,4.606c-1.492-1.015-2.682-3.606-3.216-4.816
	C249.691,117.467,248.432,115.391,246.178,114.21z"/>
<path style="fill-rule:evenodd;clip-rule:evenodd;fill:#76B82A;" d="M300.849,111.863c-3.567-2.823-4.212-7.706-3.689-10.632
	c1.413-7.951,12.473-10.184,15.33-16.884c-0.944,5.296,0.924,9.318,1.423,14.588c0.639,6.714-4.656,13.165-11.335,12.818
	c-0.173-3.275,0.59-7.036,2.608-10.019c2.092-3.1,4.522-7.239,4.803-11.116c-0.401,3.686-3.952,8.341-5.632,10.475
	C303.364,102.351,300.816,106.637,300.849,111.863z"/>
<path style="fill-rule:evenodd;clip-rule:evenodd;fill:#5D9021;" d="M282.142,121.398c-1.258-2.818-0.11-5.955,1.123-7.549
	c3.353-4.332,10.698-2.196,14.522-5.324c-2.234,2.885-2.376,5.89-3.731,9.214c-1.729,4.234-6.939,6.446-10.843,4.137
	c0.926-2.021,2.565-4.042,4.716-5.2c2.234-1.205,4.994-2.928,6.382-5.169c-1.399,2.089-4.998,3.77-6.678,4.523
	C286.643,116.474,283.764,118.248,282.142,121.398z"/>
<path style="fill-rule:evenodd;clip-rule:evenodd;fill:#76B82A;" d="M271.489,119.032c0.506-2.351-0.874-4.559-2.07-5.576
	c-3.251-2.766-8.511,0.044-11.93-1.728c2.166,1.842,2.759,4.11,4.326,6.427c1.998,2.951,6.326,3.801,8.934,1.414
	c-1.031-1.393-2.607-2.67-4.434-3.208c-1.897-0.56-4.278-1.431-5.695-2.918c1.401,1.369,4.415,2.073,5.818,2.377
	C267.266,116.001,269.745,116.89,271.489,119.032z"/>
<path style="fill-rule:evenodd;clip-rule:evenodd;fill:#AFCA0B;" d="M305.851,122.562c1.136-2.12,3.618-2.909,5.189-2.909
	c4.267-0.003,6.458,5.544,10.21,6.406c-2.842,0.001-4.763,1.347-7.458,2.097c-3.435,0.956-7.283-1.199-7.723-4.707
	c1.688-0.393,3.714-0.347,5.455,0.426c1.807,0.801,4.188,1.68,6.229,1.465c-1.954,0.135-4.706-1.28-5.974-1.955
	C311.032,122.986,308.566,122.059,305.851,122.562z"/>
<path style="fill-rule:evenodd;clip-rule:evenodd;fill:#76B82A;" d="M299.284,134.002c1.742-2.256,4.799-2.694,6.635-2.387
	c4.992,0.83,6.47,7.744,10.688,9.486c-3.326-0.555-5.832,0.644-9.132,0.995c-4.2,0.446-8.28-2.825-8.109-7.013
	c2.05-0.13,4.412,0.321,6.296,1.564c1.955,1.29,4.565,2.782,6.997,2.93c-2.312-0.224-5.254-2.417-6.602-3.454
	C305.26,135.512,302.559,133.944,299.284,134.002z"/>
<path style="fill-rule:evenodd;clip-rule:evenodd;fill:#53821D;" d="M253.303,131.372c0.075-2.651,2.133-4.656,3.681-5.433
	c4.208-2.112,9.109,2.277,13.235,1.274c-2.803,1.405-4.031,3.681-6.317,5.753c-2.916,2.64-7.776,2.417-9.944-0.826
	c1.471-1.222,3.493-2.178,5.59-2.276c2.178-0.103,4.96-0.412,6.868-1.633c-1.86,1.099-5.274,1.063-6.858,1.022
	C258.625,129.23,255.733,129.533,253.303,131.372z"/>
<path style="fill-rule:evenodd;clip-rule:evenodd;fill:#76B82A;" d="M246.561,144.44c1.958-1.249,4.42-0.745,5.744-0.004
	c3.599,2.009,2.827,7.716,5.582,10.212c-2.396-1.339-4.648-1.111-7.271-1.749c-3.347-0.814-5.572-4.444-4.289-7.608
	c1.608,0.465,3.295,1.46,4.396,2.931c1.145,1.528,2.734,3.389,4.559,4.172c-1.713-0.809-3.364-3.298-4.112-4.465
	C250.729,147.242,249.088,145.296,246.561,144.44z"/>
<path style="fill-rule:evenodd;clip-rule:evenodd;fill:#76B82A;" d="M239.348,132.494c-0.214-1.638,0.855-3.071,1.733-3.7
	c2.383-1.709,5.824,0.512,8.267-0.507c-1.588,1.138-2.122,2.658-3.326,4.156c-1.536,1.908-4.547,2.244-6.198,0.461
	c0.787-0.895,1.937-1.68,3.219-1.945c1.33-0.275,3.01-0.736,4.066-1.674c-1.039,0.858-3.143,1.169-4.121,1.298
	C242.412,130.658,240.662,131.127,239.348,132.494z"/>
<path style="fill-rule:evenodd;clip-rule:evenodd;fill:#76B82A;" d="M253.633,139.296c1.089-1.243,2.871-1.388,3.923-1.146
	c2.857,0.658,3.468,4.709,5.846,5.866c-1.903-0.439-3.396,0.166-5.315,0.252c-2.448,0.11-4.692-1.927-4.445-4.343
	c1.191-0.003,2.541,0.342,3.587,1.127c1.086,0.816,2.544,1.771,3.946,1.943c-1.331-0.211-2.956-1.584-3.698-2.232
	C257.037,140.381,255.529,139.379,253.633,139.296z"/>
<path style="fill-rule:evenodd;clip-rule:evenodd;fill:#76B82A;" d="M233.481,157.6c2.4,1.006,3.506,3.599,3.671,5.291
	c0.441,4.599-5.311,7.53-5.853,11.662c-0.294-3.063-1.941-4.993-3.029-7.82c-1.383-3.602,0.542-7.971,4.277-8.807
	c0.596,1.779,0.756,3.968,0.102,5.922c-0.676,2.03-1.378,4.685-0.936,6.864c-0.347-2.093,0.893-5.205,1.492-6.639
	C233.558,163.228,234.305,160.474,233.481,157.6z"/>
<path style="fill-rule:evenodd;clip-rule:evenodd;fill:#76B82A;" d="M228.524,141.095c0.596-1.635-0.173-3.355-0.93-4.204
	c-2.056-2.306-6.107-0.816-8.381-2.426c1.37,1.536,1.568,3.221,2.461,5.039c1.139,2.315,4.158,3.355,6.266,1.902
	c-0.602-1.102-1.604-2.174-2.86-2.741c-1.304-0.59-2.925-1.451-3.795-2.659c0.87,1.121,2.961,1.926,3.936,2.283
	C225.796,138.502,227.487,139.386,228.524,141.095z"/>
<path style="fill-rule:evenodd;clip-rule:evenodd;fill:#3D6315;" d="M245.628,169c2.408-0.357,4.012-2.451,4.549-3.947
	c1.467-4.066-3.066-8.054-2.604-11.925c-0.976,2.71-2.915,4.077-4.556,6.388c-2.088,2.944-1.354,7.35,1.838,8.973
	c0.954-1.474,1.604-3.421,1.464-5.344c-0.143-1.997-0.165-4.565,0.74-6.439c-0.798,1.817-0.395,4.925-0.184,6.363
	C246.999,163.916,247.037,166.585,245.628,169z"/>
<path style="fill-rule:evenodd;clip-rule:evenodd;fill:#76B82A;" d="M291.846,158.934c-2.329-1.339-3.128-4.134-3.078-5.888
	c0.135-4.766,6.401-7.029,7.487-11.19c-0.093,3.174,1.348,5.361,2.098,8.395c0.954,3.865-1.578,8.092-5.508,8.47
	c-0.384-1.898-0.266-4.161,0.654-6.078c0.952-1.992,2.012-4.619,1.838-6.908c0.088,2.188-1.582,5.214-2.378,6.605
	C292.489,153.161,291.373,155.885,291.846,158.934z"/>
<path style="fill-rule:evenodd;clip-rule:evenodd;fill:#5D9021;" d="M313.852,156.764c0.242-3.886,3.36-6.724,5.67-7.786
	c6.279-2.888,13.249,3.795,19.355,2.531c-4.184,1.922-6.101,5.199-9.56,8.125c-4.408,3.727-11.527,3.156-14.546-1.709
	c2.218-1.72,5.234-3.02,8.315-3.06c3.203-0.041,7.297-0.355,10.158-2.053c-2.786,1.52-7.792,1.297-10.111,1.158
	C321.767,153.888,317.511,154.189,313.852,156.764z"/>
<path style="fill-rule:evenodd;clip-rule:evenodd;fill:#76B82A;" d="M302.02,179.497c1.744-2.255,4.798-2.694,6.636-2.388
	c4.992,0.831,6.468,7.745,10.687,9.487c-3.324-0.555-5.832,0.644-9.131,0.995c-4.201,0.446-8.281-2.825-8.111-7.013
	c2.052-0.13,4.415,0.321,6.297,1.563c1.957,1.291,4.567,2.782,6.999,2.93c-2.312-0.224-5.254-2.415-6.603-3.454
	C307.998,181.006,305.295,179.439,302.02,179.497z"/>
<path style="fill-rule:evenodd;clip-rule:evenodd;fill:#3D6315;" d="M271.537,168.049c-1.758-1.277-2.161-3.594-1.973-5.001
	c0.519-3.823,5.753-5.108,6.983-8.362c-0.347,2.546,0.626,4.429,0.97,6.934c0.436,3.192-1.962,6.376-5.158,6.342
	c-0.147-1.56,0.145-3.37,1.046-4.833c0.938-1.52,2.016-3.544,2.071-5.399c-0.117,1.767-1.719,4.059-2.479,5.11
	C272.552,163.46,271.419,165.556,271.537,168.049z"/>
<path style="fill-rule:evenodd;clip-rule:evenodd;fill:#5D9021;" d="M287.391,159.382c1.904,1.046,2.597,3.295,2.585,4.714
	c-0.036,3.858-5.069,5.788-5.88,9.172c0.023-2.57-1.177-4.316-1.831-6.758c-0.834-3.112,1.148-6.572,4.322-6.939
	c0.34,1.529,0.28,3.361-0.435,4.926c-0.739,1.626-1.554,3.769-1.377,5.618c-0.104-1.768,1.198-4.243,1.819-5.382
	C286.961,164.063,287.821,161.841,287.391,159.382z"/>
<path style="fill-rule:evenodd;clip-rule:evenodd;fill:#AFCA0B;" d="M263.621,187.154c2.208-1.213,3.01-3.822,2.996-5.468
	c-0.042-4.475-5.878-6.714-6.82-10.638c0.028,2.98-1.363,5.006-2.122,7.839c-0.968,3.609,1.331,7.622,5.012,8.047
	c0.398-1.773,0.326-3.898-0.501-5.714c-0.858-1.886-1.804-4.371-1.598-6.516c-0.123,2.05,1.388,4.921,2.109,6.242
	C263.124,181.726,264.119,184.302,263.621,187.154z"/>
<path style="fill-rule:evenodd;clip-rule:evenodd;fill:#76B82A;" d="M265.997,169.176c0.704-1.081,0.438-2.451,0.034-3.191
	c-1.096-2.01-4.272-1.614-5.642-3.158c0.729,1.339,0.59,2.588,0.93,4.05c0.434,1.862,2.438,3.12,4.203,2.425
	c-0.249-0.896-0.793-1.839-1.604-2.459c-0.841-0.645-1.868-1.539-2.292-2.556c0.438,0.955,1.812,1.887,2.457,2.308
	C264.463,166.846,265.535,167.769,265.997,169.176z"/>
<path style="fill-rule:evenodd;clip-rule:evenodd;fill:#76B82A;" d="M304.737,154.574c1.619-0.308,2.645-1.768,2.969-2.796
	c0.879-2.792-2.3-5.365-2.093-7.996c-0.584,1.859-1.86,2.839-2.905,4.448c-1.331,2.05-0.711,5.011,1.492,6.02
	c0.604-1.023,0.99-2.36,0.843-3.656c-0.152-1.347-0.238-3.084,0.322-4.377c-0.491,1.251-0.131,3.342,0.052,4.31
	C305.524,151.096,305.625,152.901,304.737,154.574z"/>
<path style="fill-rule:evenodd;clip-rule:evenodd;fill:#5D9021;" d="M275.795,187.594c2.395-2.543,6.172-2.714,8.374-2.121
	c5.988,1.606,6.966,10.211,11.901,12.838c-3.987-1.072-7.185,0.091-11.249,0.127c-5.176,0.044-9.762-4.429-9.057-9.516
	c2.517,0.085,5.342,0.916,7.49,2.655c2.233,1.806,5.238,3.936,8.186,4.406c-2.794-0.548-6.119-3.572-7.64-4.997
	C282.903,190.146,279.795,187.913,275.795,187.594z"/>
<path style="fill-rule:evenodd;clip-rule:evenodd;fill:#76B82A;" d="M348.607,185.794c-2.231-4.703-0.419-10.04,1.597-12.779
	c5.48-7.441,17.958-4.132,24.281-9.561c-3.65,4.956-3.771,10.028-5.926,15.69c-2.746,7.211-11.446,11.15-18.126,7.412
	c1.484-3.447,4.17-6.92,7.753-8.96c3.718-2.121,8.305-5.137,10.555-8.975c-2.275,3.58-8.277,6.559-11.083,7.898
	C356.006,177.309,351.22,180.416,348.607,185.794z"/>
<path style="fill-rule:evenodd;clip-rule:evenodd;fill:#5D9021;" d="M301.799,172.001c-0.584-1.926,0.414-3.864,1.342-4.796
	c2.521-2.533,7.103-0.554,9.832-2.269c-1.68,1.686-2.016,3.62-3.164,5.662c-1.462,2.602-5.014,3.611-7.354,1.799
	c0.764-1.233,1.989-2.408,3.476-2.984c1.542-0.598,3.471-1.49,4.55-2.829c-1.075,1.239-3.542,2.035-4.69,2.387
	C305.112,169.178,303.105,170.093,301.799,172.001z"/>
<path style="fill-rule:evenodd;clip-rule:evenodd;fill:#AFCA0B;" d="M329.17,185.028c-3.278-0.707-5.292-3.729-5.897-5.834
	c-1.645-5.72,4.944-10.791,4.656-16.152c1.095,3.811,3.64,5.865,5.684,9.188c2.602,4.235,1.196,10.223-3.337,12.165
	c-1.177-2.111-1.896-4.847-1.528-7.476c0.378-2.73,0.64-6.258-0.437-8.914c0.934,2.568,0.098,6.803-0.32,8.76
	C327.744,177.918,327.45,181.582,329.17,185.028z"/>
<path style="fill-rule:evenodd;clip-rule:evenodd;fill:#53821D;" d="M340.536,197.113c3.006-3.261,7.802-3.528,10.607-2.806
	c7.625,1.962,8.98,12.877,15.284,16.146c-5.078-1.308-9.126,0.212-14.286,0.311c-6.574,0.126-12.455-5.496-11.628-11.965
	c3.198,0.076,6.799,1.092,9.551,3.273c2.857,2.264,6.701,4.93,10.451,5.487c-3.554-0.66-7.817-4.454-9.768-6.246
	C349.598,200.259,345.618,197.466,340.536,197.113z"/>
<path style="fill-rule:evenodd;clip-rule:evenodd;fill:#AFCA0B;" d="M334.508,235.164c3.007-3.26,7.801-3.528,10.608-2.806
	c7.623,1.962,8.98,12.878,15.284,16.148c-5.078-1.309-9.126,0.211-14.286,0.309c-6.574,0.125-12.456-5.496-11.628-11.965
	c3.197,0.075,6.798,1.093,9.547,3.272c2.861,2.265,6.705,4.93,10.455,5.488c-3.554-0.66-7.818-4.455-9.768-6.246
	C343.57,238.311,339.59,235.518,334.508,235.164z"/>
<path style="fill-rule:evenodd;clip-rule:evenodd;fill:#53821D;" d="M263.172,225.96c1.016-4.318-1.451-8.439-3.623-10.357
	c-5.897-5.215-15.697-0.22-21.938-3.607c3.931,3.472,4.94,7.676,7.75,12.004c3.582,5.514,11.534,7.234,16.426,2.922
	c-1.853-2.605-4.714-5.016-8.061-6.072c-3.478-1.099-7.84-2.789-10.404-5.581c2.541,2.573,8.072,3.977,10.648,4.589
	C255.487,220.219,260.031,221.948,263.172,225.96z"/>
<path style="fill-rule:evenodd;clip-rule:evenodd;fill:#76B82A;" d="M273.301,222.658c2.164-2.283,2.124-5.688,1.48-7.639
	c-1.753-5.301-9.539-5.741-12.154-10.045c1.169,3.531,0.286,6.467,0.463,10.123c0.224,4.657,4.482,8.551,9.02,7.657
	c-0.206-2.258-1.098-4.756-2.772-6.6c-1.738-1.914-3.807-4.508-4.38-7.134c0.636,2.483,3.523,5.319,4.883,6.614
	C270.644,216.397,272.81,219.079,273.301,222.658z"/>
<path style="fill-rule:evenodd;clip-rule:evenodd;fill:#76B82A;" d="M308.599,198.615c1.685-1.776,1.653-4.426,1.152-5.945
	c-1.364-4.126-7.425-4.468-9.458-7.817c0.908,2.748,0.222,5.033,0.358,7.878c0.175,3.624,3.487,6.654,7.02,5.958
	c-0.16-1.758-0.854-3.702-2.156-5.136c-1.352-1.491-2.962-3.509-3.408-5.553c0.494,1.933,2.742,4.14,3.801,5.147
	C306.531,193.742,308.217,195.829,308.599,198.615z"/>
<path style="fill-rule:evenodd;clip-rule:evenodd;fill:#3D6315;" d="M305.782,214.188c0.694-3.072-1.079-5.983-2.633-7.331
	c-4.219-3.668-11.146-0.063-15.599-2.431c2.813,2.442,3.554,5.42,5.576,8.477c2.574,3.894,8.229,5.067,11.678,1.977
	c-1.332-1.838-3.376-3.533-5.76-4.263c-2.476-0.759-5.582-1.933-7.42-3.9c1.818,1.811,5.754,2.775,7.588,3.194
	C300.293,210.158,303.528,211.358,305.782,214.188z"/>
<path style="fill-rule:evenodd;clip-rule:evenodd;fill:#AFCA0B;" d="M281.514,235.498c-2.423-2.013-2.786-5.401-2.377-7.418
	c1.113-5.478,8.804-6.838,10.893-11.427c-0.743,3.649,0.481,6.463,0.739,10.119c0.33,4.656-3.441,9.031-8.06,8.679
	c-0.063-2.269,0.528-4.857,1.975-6.889c1.5-2.108,3.249-4.933,3.508-7.611c-0.338,2.543-2.872,5.706-4.072,7.155
	C283.415,228.96,281.579,231.882,281.514,235.498z"/>
<path style="fill-rule:evenodd;clip-rule:evenodd;fill:#AFCA0B;" d="M268.309,259.401c2.139-3.492,1.169-7.819-0.181-10.13
	c-3.665-6.281-13.704-4.734-18.198-9.51c2.441,4.183,2.111,8.162,3.325,12.771c1.547,5.871,8.022,9.68,13.561,7.311
	c-0.872-2.82-2.684-5.761-5.313-7.656c-2.733-1.97-6.07-4.713-7.51-7.903c1.481,2.99,5.928,5.822,8.011,7.104
	C263.229,252.145,266.713,254.976,268.309,259.401z"/>
<path style="fill-rule:evenodd;clip-rule:evenodd;fill:#76B82A;" d="M329.632,219.55c-1.28-2.113-0.682-4.719,0.141-6.108
	c2.228-3.776,8.275-2.814,11-5.68c-1.484,2.515-1.298,4.915-2.042,7.69c-0.951,3.536-4.866,5.814-8.198,4.37
	c0.534-1.699,1.635-3.467,3.227-4.602c1.653-1.179,3.673-2.824,4.551-4.744c-0.901,1.799-3.591,3.494-4.851,4.26
	C332.716,215.189,330.606,216.885,329.632,219.55z"/>
<path style="fill-rule:evenodd;clip-rule:evenodd;fill:#76B82A;" d="M320.782,239.525c2.696-1.483,5.91-0.605,7.598,0.489
	c4.586,2.97,3.076,10.452,6.504,13.993c-3.054-1.98-6.052-1.871-9.47-2.942c-4.354-1.364-6.987-6.359-5.018-10.434
	c2.088,0.754,4.231,2.216,5.564,4.256c1.381,2.12,3.325,4.722,5.67,5.913c-2.192-1.216-4.164-4.653-5.054-6.262
	C326.053,243.592,324.049,240.877,320.782,239.525z"/>
<path style="fill-rule:evenodd;clip-rule:evenodd;fill:#5D9021;" d="M321.422,299.28c3.754-2.065,8.23-0.84,10.58,0.682
	c6.386,4.136,4.284,14.555,9.058,19.483c-4.255-2.756-8.431-2.604-13.188-4.096c-6.065-1.9-9.73-8.856-6.986-14.53
	c2.907,1.05,5.893,3.085,7.746,5.927c1.926,2.952,4.633,6.573,7.895,8.233c-3.053-1.694-5.797-6.478-7.035-8.718
	C328.761,304.943,325.973,301.162,321.422,299.28z"/>
<path style="fill-rule:evenodd;clip-rule:evenodd;fill:#AFCA0B;" d="M299.397,303.824c4.092,1.279,6.304,5.358,6.832,8.108
	c1.433,7.472-7.543,13.164-7.796,20.02c-0.954-4.977-3.955-7.886-6.171-12.354c-2.823-5.691-0.342-13.151,5.652-15.097
	c1.256,2.823,1.852,6.389,1.083,9.692c-0.797,3.433-1.539,7.892-0.478,11.398c-0.892-3.377,0.664-8.67,1.423-11.114
	C300.391,313.039,301.189,308.41,299.397,303.824z"/>
<path style="fill-rule:evenodd;clip-rule:evenodd;fill:#76B82A;" d="M312.533,306.476c2.879,0.526,4.722,3.106,5.308,4.927
	c1.598,4.947-4.014,9.558-3.614,14.229c-1.062-3.296-3.338-5.018-5.217-7.863c-2.389-3.622-1.327-8.888,2.573-10.709
	c1.087,1.81,1.789,4.179,1.544,6.483c-0.254,2.394-0.385,5.48,0.63,7.768c-0.888-2.215-0.274-5.934,0.036-7.655
	C313.975,312.642,314.129,309.436,312.533,306.476z"/>
<path style="fill-rule:evenodd;clip-rule:evenodd;fill:#3D6315;" d="M305.566,272.738c-0.424-2.898,1.433-5.468,2.971-6.608
	c4.173-3.095,10.337,0.746,14.636-1.129c-2.782,2.06-3.687,4.77-5.78,7.458c-2.668,3.424-7.996,4.105-10.97,0.991
	c1.368-1.608,3.386-3.033,5.647-3.538c2.351-0.525,5.314-1.39,7.158-3.081c-1.814,1.549-5.534,2.158-7.264,2.415
	C310.947,269.397,307.861,270.277,305.566,272.738z"/>
<path style="fill-rule:evenodd;clip-rule:evenodd;fill:#76B82A;" d="M306.354,283.402c2.282-1.833,5.439-1.536,7.2-0.789
	c4.785,2.03,4.598,9.289,8.392,12.044c-3.186-1.354-5.978-0.76-9.357-1.202c-4.303-0.565-7.59-4.813-6.415-8.954
	c2.081,0.363,4.33,1.382,5.912,3.075c1.645,1.759,3.893,3.876,6.286,4.609c-2.256-0.78-4.667-3.677-5.764-5.037
	C311.961,286.347,309.637,284.132,306.354,283.402z"/>
<path style="fill-rule:evenodd;clip-rule:evenodd;fill:#76B82A;" d="M277.419,299.531c2.658,1.227,3.801,4.185,3.916,6.095
	c0.316,5.188-6.266,8.256-7.042,12.88c-0.208-3.456-1.984-5.69-3.094-8.913c-1.414-4.103,0.925-8.94,5.156-9.732
	c0.602,2.023,0.693,4.492-0.118,6.663c-0.842,2.256-1.736,5.212-1.324,7.68c-0.309-2.365,1.21-5.815,1.94-7.405
	C277.281,305.862,278.229,302.796,277.419,299.531z"/>
<path style="fill-rule:evenodd;clip-rule:evenodd;fill:#3D6315;" d="M270.577,300.663c0.901,2.786-0.496,5.631-1.821,7.011
	c-3.599,3.752-10.316,0.996-14.24,3.565c2.397-2.498,2.834-5.319,4.449-8.32c2.057-3.822,7.196-5.385,10.648-2.814
	c-1.078,1.814-2.83,3.556-4.974,4.433c-2.229,0.912-5.008,2.26-6.542,4.236c1.53-1.83,5.094-3.055,6.756-3.597
	C265.831,304.856,268.727,303.473,270.577,300.663z"/>
<path style="fill-rule:evenodd;clip-rule:evenodd;fill:#AFCA0B;" d="M290.135,251.76c1.582-4.144,5.934-6.172,8.808-6.543
	c7.808-1.012,13.12,8.621,20.189,9.315c-5.202,0.671-8.396,3.585-13.15,5.593c-6.059,2.558-13.605-0.477-15.237-6.791
	c2.996-1.117,6.716-1.509,10.079-0.506c3.496,1.039,8.055,2.087,11.744,1.213c-3.545,0.706-8.914-1.233-11.39-2.172
	C299.717,251.317,294.985,250.2,290.135,251.76z"/>
</svg>
