<?xml version="1.0" standalone="no"?>
<svg xmlns:xlink="http://www.w3.org/1999/xlink" id="wave" style="transform:rotate(180deg); transition: 0.3s" viewBox="0 0 1440 240" version="1.1" xmlns="http://www.w3.org/2000/svg"><defs><linearGradient id="sw-gradient-0" x1="0" x2="0" y1="1" y2="0"><stop stop-color="rgba(255, 255, 255, 1)" offset="0%"/><stop stop-color="rgba(255, 255, 255, 1)" offset="100%"/></linearGradient></defs><path style="transform:translate(0, 0px); opacity:1" fill="url(#sw-gradient-0)" d="M0,144L120,156C240,168,480,192,720,176C960,160,1200,104,1440,84C1680,64,1920,80,2160,72C2400,64,2640,32,2880,44C3120,56,3360,112,3600,132C3840,152,4080,136,4320,140C4560,144,4800,168,5040,168C5280,168,5520,144,5760,136C6000,128,6240,136,6480,144C6720,152,6960,160,7200,164C7440,168,7680,168,7920,172C8160,176,8400,184,8640,160C8880,136,9120,80,9360,84C9600,88,9840,152,10080,172C10320,192,10560,168,10800,148C11040,128,11280,112,11520,88C11760,64,12000,32,12240,52C12480,72,12720,144,12960,156C13200,168,13440,120,13680,116C13920,112,14160,152,14400,152C14640,152,14880,112,15120,104C15360,96,15600,120,15840,108C16080,96,16320,48,16560,44C16800,40,17040,80,17160,100L17280,120L17280,240L17160,240C17040,240,16800,240,16560,240C16320,240,16080,240,15840,240C15600,240,15360,240,15120,240C14880,240,14640,240,14400,240C14160,240,13920,240,13680,240C13440,240,13200,240,12960,240C12720,240,12480,240,12240,240C12000,240,11760,240,11520,240C11280,240,11040,240,10800,240C10560,240,10320,240,10080,240C9840,240,9600,240,9360,240C9120,240,8880,240,8640,240C8400,240,8160,240,7920,240C7680,240,7440,240,7200,240C6960,240,6720,240,6480,240C6240,240,6000,240,5760,240C5520,240,5280,240,5040,240C4800,240,4560,240,4320,240C4080,240,3840,240,3600,240C3360,240,3120,240,2880,240C2640,240,2400,240,2160,240C1920,240,1680,240,1440,240C1200,240,960,240,720,240C480,240,240,240,120,240L0,240Z"/></svg>