<?xml version="1.0" standalone="no"?>
<svg xmlns:xlink="http://www.w3.org/1999/xlink" id="wave" style="transform:rotate(0deg); transition: 0.3s" viewBox="0 0 1440 340" version="1.1" xmlns="http://www.w3.org/2000/svg"><defs><linearGradient id="sw-gradient-0" x1="0" x2="0" y1="1" y2="0"><stop stop-color="rgba(255, 255, 255, 1)" offset="0%"/><stop stop-color="rgba(255, 255, 255, 1)" offset="100%"/></linearGradient></defs><path style="transform:translate(0, 0px); opacity:1" fill="url(#sw-gradient-0)" d="M0,204L60,221C120,238,240,272,360,249.3C480,227,600,147,720,119C840,91,960,113,1080,102C1200,91,1320,45,1440,62.3C1560,79,1680,159,1800,187C1920,215,2040,193,2160,198.3C2280,204,2400,238,2520,238C2640,238,2760,204,2880,192.7C3000,181,3120,193,3240,204C3360,215,3480,227,3600,232.3C3720,238,3840,238,3960,243.7C4080,249,4200,261,4320,226.7C4440,193,4560,113,4680,119C4800,125,4920,215,5040,243.7C5160,272,5280,238,5400,209.7C5520,181,5640,159,5760,124.7C5880,91,6000,45,6120,73.7C6240,102,6360,204,6480,221C6600,238,6720,170,6840,164.3C6960,159,7080,215,7200,215.3C7320,215,7440,159,7560,147.3C7680,136,7800,170,7920,153C8040,136,8160,68,8280,62.3C8400,57,8520,113,8580,141.7L8640,170L8640,340L8580,340C8520,340,8400,340,8280,340C8160,340,8040,340,7920,340C7800,340,7680,340,7560,340C7440,340,7320,340,7200,340C7080,340,6960,340,6840,340C6720,340,6600,340,6480,340C6360,340,6240,340,6120,340C6000,340,5880,340,5760,340C5640,340,5520,340,5400,340C5280,340,5160,340,5040,340C4920,340,4800,340,4680,340C4560,340,4440,340,4320,340C4200,340,4080,340,3960,340C3840,340,3720,340,3600,340C3480,340,3360,340,3240,340C3120,340,3000,340,2880,340C2760,340,2640,340,2520,340C2400,340,2280,340,2160,340C2040,340,1920,340,1800,340C1680,340,1560,340,1440,340C1320,340,1200,340,1080,340C960,340,840,340,720,340C600,340,480,340,360,340C240,340,120,340,60,340L0,340Z"/></svg>