<svg width="60" height="47" viewBox="0 0 60 47" fill="none" xmlns="http://www.w3.org/2000/svg">
<g id="Quotation marks 2" clip-path="url(#clip0_1363_1893)">
<g id="Group">
<path id="Vector" d="M50.7988 1.38607C52.0395 2.70234 51.1589 3.96804 48.9575 3.96804C46.596 3.96804 43.5942 10.8531 43.5942 16.1182C43.5942 18.7508 43.8743 18.9026 47.997 18.9026C59.8045 18.9026 64.0071 31.6603 55.5617 41.8865C43.5541 56.4668 26.8235 37.3809 32.7472 15.8651C35.7892 4.98055 46.2759 -3.42338 50.7988 1.38607Z" fill="#FF9736"/>
</g>
<g id="Group_2">
<path id="Vector_2" d="M19.2831 1.38607C20.5239 2.70234 19.6433 3.96804 17.4419 3.96804C15.0804 3.96804 12.0785 10.8531 12.0785 16.1182C12.0785 18.7508 12.3587 18.9026 16.4813 18.9026C28.2888 18.9026 32.4915 31.6603 24.0461 41.8865C12.0385 56.4668 -4.6922 37.3809 1.23157 15.8651C4.27351 4.98055 14.7602 -3.42338 19.2831 1.38607Z" fill="#FF9736"/>
</g>
</g>
<defs>
<clipPath id="clip0_1363_1893">
<rect width="60" height="47" fill="white"/>
</clipPath>
</defs>
</svg>
